<?xml version="1.0" encoding="utf-8" standalone="no"?>
<!DOCTYPE svg PUBLIC "-//W3C//DTD SVG 1.1//EN"
  "http://www.w3.org/Graphics/SVG/1.1/DTD/svg11.dtd">
<svg xmlns:xlink="http://www.w3.org/1999/xlink" width="424.385312pt" height="279.674688pt" viewBox="0 0 424.385312 279.674688" xmlns="http://www.w3.org/2000/svg" version="1.1">
 <metadata>
  <rdf:RDF xmlns:dc="http://purl.org/dc/elements/1.1/" xmlns:cc="http://creativecommons.org/ns#" xmlns:rdf="http://www.w3.org/1999/02/22-rdf-syntax-ns#">
   <cc:Work>
    <dc:type rdf:resource="http://purl.org/dc/dcmitype/StillImage"/>
    <dc:date>2026-03-27T12:15:27.704087</dc:date>
    <dc:format>image/svg+xml</dc:format>
    <dc:creator>
     <cc:Agent>
      <dc:title>Matplotlib v3.10.7, https://matplotlib.org/</dc:title>
     </cc:Agent>
    </dc:creator>
   </cc:Work>
  </rdf:RDF>
 </metadata>
 <defs>
  <style type="text/css">*{stroke-linejoin: round; stroke-linecap: butt}</style>
 </defs>
 <g id="figure_1">
  <g id="patch_1">
   <path d="M 0 279.674688 
L 424.385312 279.674688 
L 424.385312 0 
L 0 0 
z
" style="fill: #ffffff"/>
  </g>
  <g id="axes_1">
   <g id="patch_2">
    <path d="M 55.345313 242.118437 
L 417.185313 242.118437 
L 417.185313 20.798437 
L 55.345313 20.798437 
z
" style="fill: #ffffff"/>
   </g>
   <g id="matplotlib.axis_1">
    <g id="xtick_1">
     <g id="line2d_1">
      <path d="M 108.595728 242.118437 
L 108.595728 20.798437 
" clip-path="url(#p6b1bf7dc87)" style="fill: none; stroke: #d9d9d9; stroke-opacity: 0.3; stroke-width: 0.5; stroke-linecap: square"/>
     </g>
     <g id="line2d_2">
      <defs>
       <path id="m6a649457da" d="M 0 0 
L 0 3.5 
" style="stroke: #000000; stroke-width: 0.8"/>
      </defs>
      <g>
       <use xlink:href="#m6a649457da" x="108.595728" y="242.118437" style="stroke: #000000; stroke-width: 0.8"/>
      </g>
     </g>
     <g id="text_1">
      <!-- 160 -->
      <g transform="translate(99.051978 256.716875) scale(0.1 -0.1)">
       <defs>
        <path id="DejaVuSans-31" d="M 794 531 
L 1825 531 
L 1825 4091 
L 703 3866 
L 703 4441 
L 1819 4666 
L 2450 4666 
L 2450 531 
L 3481 531 
L 3481 0 
L 794 0 
L 794 531 
z
" transform="scale(0.015625)"/>
        <path id="DejaVuSans-36" d="M 2113 2584 
Q 1688 2584 1439 2293 
Q 1191 2003 1191 1497 
Q 1191 994 1439 701 
Q 1688 409 2113 409 
Q 2538 409 2786 701 
Q 3034 994 3034 1497 
Q 3034 2003 2786 2293 
Q 2538 2584 2113 2584 
z
M 3366 4563 
L 3366 3988 
Q 3128 4100 2886 4159 
Q 2644 4219 2406 4219 
Q 1781 4219 1451 3797 
Q 1122 3375 1075 2522 
Q 1259 2794 1537 2939 
Q 1816 3084 2150 3084 
Q 2853 3084 3261 2657 
Q 3669 2231 3669 1497 
Q 3669 778 3244 343 
Q 2819 -91 2113 -91 
Q 1303 -91 875 529 
Q 447 1150 447 2328 
Q 447 3434 972 4092 
Q 1497 4750 2381 4750 
Q 2619 4750 2861 4703 
Q 3103 4656 3366 4563 
z
" transform="scale(0.015625)"/>
        <path id="DejaVuSans-30" d="M 2034 4250 
Q 1547 4250 1301 3770 
Q 1056 3291 1056 2328 
Q 1056 1369 1301 889 
Q 1547 409 2034 409 
Q 2525 409 2770 889 
Q 3016 1369 3016 2328 
Q 3016 3291 2770 3770 
Q 2525 4250 2034 4250 
z
M 2034 4750 
Q 2819 4750 3233 4129 
Q 3647 3509 3647 2328 
Q 3647 1150 3233 529 
Q 2819 -91 2034 -91 
Q 1250 -91 836 529 
Q 422 1150 422 2328 
Q 422 3509 836 4129 
Q 1250 4750 2034 4750 
z
" transform="scale(0.015625)"/>
       </defs>
       <use xlink:href="#DejaVuSans-31"/>
       <use xlink:href="#DejaVuSans-36" transform="translate(63.623047 0)"/>
       <use xlink:href="#DejaVuSans-30" transform="translate(127.246094 0)"/>
      </g>
     </g>
    </g>
    <g id="xtick_2">
     <g id="line2d_3">
      <path d="M 170.491462 242.118437 
L 170.491462 20.798437 
" clip-path="url(#p6b1bf7dc87)" style="fill: none; stroke: #d9d9d9; stroke-opacity: 0.3; stroke-width: 0.5; stroke-linecap: square"/>
     </g>
     <g id="line2d_4">
      <g>
       <use xlink:href="#m6a649457da" x="170.491462" y="242.118437" style="stroke: #000000; stroke-width: 0.8"/>
      </g>
     </g>
     <g id="text_2">
      <!-- 180 -->
      <g transform="translate(160.947712 256.716875) scale(0.1 -0.1)">
       <defs>
        <path id="DejaVuSans-38" d="M 2034 2216 
Q 1584 2216 1326 1975 
Q 1069 1734 1069 1313 
Q 1069 891 1326 650 
Q 1584 409 2034 409 
Q 2484 409 2743 651 
Q 3003 894 3003 1313 
Q 3003 1734 2745 1975 
Q 2488 2216 2034 2216 
z
M 1403 2484 
Q 997 2584 770 2862 
Q 544 3141 544 3541 
Q 544 4100 942 4425 
Q 1341 4750 2034 4750 
Q 2731 4750 3128 4425 
Q 3525 4100 3525 3541 
Q 3525 3141 3298 2862 
Q 3072 2584 2669 2484 
Q 3125 2378 3379 2068 
Q 3634 1759 3634 1313 
Q 3634 634 3220 271 
Q 2806 -91 2034 -91 
Q 1263 -91 848 271 
Q 434 634 434 1313 
Q 434 1759 690 2068 
Q 947 2378 1403 2484 
z
M 1172 3481 
Q 1172 3119 1398 2916 
Q 1625 2713 2034 2713 
Q 2441 2713 2670 2916 
Q 2900 3119 2900 3481 
Q 2900 3844 2670 4047 
Q 2441 4250 2034 4250 
Q 1625 4250 1398 4047 
Q 1172 3844 1172 3481 
z
" transform="scale(0.015625)"/>
       </defs>
       <use xlink:href="#DejaVuSans-31"/>
       <use xlink:href="#DejaVuSans-38" transform="translate(63.623047 0)"/>
       <use xlink:href="#DejaVuSans-30" transform="translate(127.246094 0)"/>
      </g>
     </g>
    </g>
    <g id="xtick_3">
     <g id="line2d_5">
      <path d="M 232.387196 242.118437 
L 232.387196 20.798437 
" clip-path="url(#p6b1bf7dc87)" style="fill: none; stroke: #d9d9d9; stroke-opacity: 0.3; stroke-width: 0.5; stroke-linecap: square"/>
     </g>
     <g id="line2d_6">
      <g>
       <use xlink:href="#m6a649457da" x="232.387196" y="242.118437" style="stroke: #000000; stroke-width: 0.8"/>
      </g>
     </g>
     <g id="text_3">
      <!-- 200 -->
      <g transform="translate(222.843446 256.716875) scale(0.1 -0.1)">
       <defs>
        <path id="DejaVuSans-32" d="M 1228 531 
L 3431 531 
L 3431 0 
L 469 0 
L 469 531 
Q 828 903 1448 1529 
Q 2069 2156 2228 2338 
Q 2531 2678 2651 2914 
Q 2772 3150 2772 3378 
Q 2772 3750 2511 3984 
Q 2250 4219 1831 4219 
Q 1534 4219 1204 4116 
Q 875 4013 500 3803 
L 500 4441 
Q 881 4594 1212 4672 
Q 1544 4750 1819 4750 
Q 2544 4750 2975 4387 
Q 3406 4025 3406 3419 
Q 3406 3131 3298 2873 
Q 3191 2616 2906 2266 
Q 2828 2175 2409 1742 
Q 1991 1309 1228 531 
z
" transform="scale(0.015625)"/>
       </defs>
       <use xlink:href="#DejaVuSans-32"/>
       <use xlink:href="#DejaVuSans-30" transform="translate(63.623047 0)"/>
       <use xlink:href="#DejaVuSans-30" transform="translate(127.246094 0)"/>
      </g>
     </g>
    </g>
    <g id="xtick_4">
     <g id="line2d_7">
      <path d="M 294.28293 242.118437 
L 294.28293 20.798437 
" clip-path="url(#p6b1bf7dc87)" style="fill: none; stroke: #d9d9d9; stroke-opacity: 0.3; stroke-width: 0.5; stroke-linecap: square"/>
     </g>
     <g id="line2d_8">
      <g>
       <use xlink:href="#m6a649457da" x="294.28293" y="242.118437" style="stroke: #000000; stroke-width: 0.8"/>
      </g>
     </g>
     <g id="text_4">
      <!-- 220 -->
      <g transform="translate(284.73918 256.716875) scale(0.1 -0.1)">
       <use xlink:href="#DejaVuSans-32"/>
       <use xlink:href="#DejaVuSans-32" transform="translate(63.623047 0)"/>
       <use xlink:href="#DejaVuSans-30" transform="translate(127.246094 0)"/>
      </g>
     </g>
    </g>
    <g id="xtick_5">
     <g id="line2d_9">
      <path d="M 356.178664 242.118437 
L 356.178664 20.798437 
" clip-path="url(#p6b1bf7dc87)" style="fill: none; stroke: #d9d9d9; stroke-opacity: 0.3; stroke-width: 0.5; stroke-linecap: square"/>
     </g>
     <g id="line2d_10">
      <g>
       <use xlink:href="#m6a649457da" x="356.178664" y="242.118437" style="stroke: #000000; stroke-width: 0.8"/>
      </g>
     </g>
     <g id="text_5">
      <!-- 240 -->
      <g transform="translate(346.634914 256.716875) scale(0.1 -0.1)">
       <defs>
        <path id="DejaVuSans-34" d="M 2419 4116 
L 825 1625 
L 2419 1625 
L 2419 4116 
z
M 2253 4666 
L 3047 4666 
L 3047 1625 
L 3713 1625 
L 3713 1100 
L 3047 1100 
L 3047 0 
L 2419 0 
L 2419 1100 
L 313 1100 
L 313 1709 
L 2253 4666 
z
" transform="scale(0.015625)"/>
       </defs>
       <use xlink:href="#DejaVuSans-32"/>
       <use xlink:href="#DejaVuSans-34" transform="translate(63.623047 0)"/>
       <use xlink:href="#DejaVuSans-30" transform="translate(127.246094 0)"/>
      </g>
     </g>
    </g>
    <g id="text_6">
     <!-- x [m] -->
     <g transform="translate(222.945 270.395) scale(0.1 -0.1)">
      <defs>
       <path id="DejaVuSans-78" d="M 3513 3500 
L 2247 1797 
L 3578 0 
L 2900 0 
L 1881 1375 
L 863 0 
L 184 0 
L 1544 1831 
L 300 3500 
L 978 3500 
L 1906 2253 
L 2834 3500 
L 3513 3500 
z
" transform="scale(0.015625)"/>
       <path id="DejaVuSans-20" transform="scale(0.015625)"/>
       <path id="DejaVuSans-5b" d="M 550 4863 
L 1875 4863 
L 1875 4416 
L 1125 4416 
L 1125 -397 
L 1875 -397 
L 1875 -844 
L 550 -844 
L 550 4863 
z
" transform="scale(0.015625)"/>
       <path id="DejaVuSans-6d" d="M 3328 2828 
Q 3544 3216 3844 3400 
Q 4144 3584 4550 3584 
Q 5097 3584 5394 3201 
Q 5691 2819 5691 2113 
L 5691 0 
L 5113 0 
L 5113 2094 
Q 5113 2597 4934 2840 
Q 4756 3084 4391 3084 
Q 3944 3084 3684 2787 
Q 3425 2491 3425 1978 
L 3425 0 
L 2847 0 
L 2847 2094 
Q 2847 2600 2669 2842 
Q 2491 3084 2119 3084 
Q 1678 3084 1418 2786 
Q 1159 2488 1159 1978 
L 1159 0 
L 581 0 
L 581 3500 
L 1159 3500 
L 1159 2956 
Q 1356 3278 1631 3431 
Q 1906 3584 2284 3584 
Q 2666 3584 2933 3390 
Q 3200 3197 3328 2828 
z
" transform="scale(0.015625)"/>
       <path id="DejaVuSans-5d" d="M 1947 4863 
L 1947 -844 
L 622 -844 
L 622 -397 
L 1369 -397 
L 1369 4416 
L 622 4416 
L 622 4863 
L 1947 4863 
z
" transform="scale(0.015625)"/>
      </defs>
      <use xlink:href="#DejaVuSans-78"/>
      <use xlink:href="#DejaVuSans-20" transform="translate(59.179688 0)"/>
      <use xlink:href="#DejaVuSans-5b" transform="translate(90.966797 0)"/>
      <use xlink:href="#DejaVuSans-6d" transform="translate(129.980469 0)"/>
      <use xlink:href="#DejaVuSans-5d" transform="translate(227.392578 0)"/>
     </g>
    </g>
   </g>
   <g id="matplotlib.axis_2">
    <g id="ytick_1">
     <g id="line2d_11">
      <path d="M 55.345313 220.45431 
L 417.185313 220.45431 
" clip-path="url(#p6b1bf7dc87)" style="fill: none; stroke: #d9d9d9; stroke-opacity: 0.3; stroke-width: 0.5; stroke-linecap: square"/>
     </g>
     <g id="line2d_12">
      <defs>
       <path id="m6a44e2e222" d="M 0 0 
L -3.5 0 
" style="stroke: #000000; stroke-width: 0.8"/>
      </defs>
      <g>
       <use xlink:href="#m6a44e2e222" x="55.345313" y="220.45431" style="stroke: #000000; stroke-width: 0.8"/>
      </g>
     </g>
     <g id="text_7">
      <!-- −230 -->
      <g transform="translate(20.878125 224.253528) scale(0.1 -0.1)">
       <defs>
        <path id="DejaVuSans-2212" d="M 678 2272 
L 4684 2272 
L 4684 1741 
L 678 1741 
L 678 2272 
z
" transform="scale(0.015625)"/>
        <path id="DejaVuSans-33" d="M 2597 2516 
Q 3050 2419 3304 2112 
Q 3559 1806 3559 1356 
Q 3559 666 3084 287 
Q 2609 -91 1734 -91 
Q 1441 -91 1130 -33 
Q 819 25 488 141 
L 488 750 
Q 750 597 1062 519 
Q 1375 441 1716 441 
Q 2309 441 2620 675 
Q 2931 909 2931 1356 
Q 2931 1769 2642 2001 
Q 2353 2234 1838 2234 
L 1294 2234 
L 1294 2753 
L 1863 2753 
Q 2328 2753 2575 2939 
Q 2822 3125 2822 3475 
Q 2822 3834 2567 4026 
Q 2313 4219 1838 4219 
Q 1578 4219 1281 4162 
Q 984 4106 628 3988 
L 628 4550 
Q 988 4650 1302 4700 
Q 1616 4750 1894 4750 
Q 2613 4750 3031 4423 
Q 3450 4097 3450 3541 
Q 3450 3153 3228 2886 
Q 3006 2619 2597 2516 
z
" transform="scale(0.015625)"/>
       </defs>
       <use xlink:href="#DejaVuSans-2212"/>
       <use xlink:href="#DejaVuSans-32" transform="translate(83.789062 0)"/>
       <use xlink:href="#DejaVuSans-33" transform="translate(147.412109 0)"/>
       <use xlink:href="#DejaVuSans-30" transform="translate(211.035156 0)"/>
      </g>
     </g>
    </g>
    <g id="ytick_2">
     <g id="line2d_13">
      <path d="M 55.345313 189.506443 
L 417.185313 189.506443 
" clip-path="url(#p6b1bf7dc87)" style="fill: none; stroke: #d9d9d9; stroke-opacity: 0.3; stroke-width: 0.5; stroke-linecap: square"/>
     </g>
     <g id="line2d_14">
      <g>
       <use xlink:href="#m6a44e2e222" x="55.345313" y="189.506443" style="stroke: #000000; stroke-width: 0.8"/>
      </g>
     </g>
     <g id="text_8">
      <!-- −220 -->
      <g transform="translate(20.878125 193.305661) scale(0.1 -0.1)">
       <use xlink:href="#DejaVuSans-2212"/>
       <use xlink:href="#DejaVuSans-32" transform="translate(83.789062 0)"/>
       <use xlink:href="#DejaVuSans-32" transform="translate(147.412109 0)"/>
       <use xlink:href="#DejaVuSans-30" transform="translate(211.035156 0)"/>
      </g>
     </g>
    </g>
    <g id="ytick_3">
     <g id="line2d_15">
      <path d="M 55.345313 158.558576 
L 417.185313 158.558576 
" clip-path="url(#p6b1bf7dc87)" style="fill: none; stroke: #d9d9d9; stroke-opacity: 0.3; stroke-width: 0.5; stroke-linecap: square"/>
     </g>
     <g id="line2d_16">
      <g>
       <use xlink:href="#m6a44e2e222" x="55.345313" y="158.558576" style="stroke: #000000; stroke-width: 0.8"/>
      </g>
     </g>
     <g id="text_9">
      <!-- −210 -->
      <g transform="translate(20.878125 162.357794) scale(0.1 -0.1)">
       <use xlink:href="#DejaVuSans-2212"/>
       <use xlink:href="#DejaVuSans-32" transform="translate(83.789062 0)"/>
       <use xlink:href="#DejaVuSans-31" transform="translate(147.412109 0)"/>
       <use xlink:href="#DejaVuSans-30" transform="translate(211.035156 0)"/>
      </g>
     </g>
    </g>
    <g id="ytick_4">
     <g id="line2d_17">
      <path d="M 55.345313 127.610708 
L 417.185313 127.610708 
" clip-path="url(#p6b1bf7dc87)" style="fill: none; stroke: #d9d9d9; stroke-opacity: 0.3; stroke-width: 0.5; stroke-linecap: square"/>
     </g>
     <g id="line2d_18">
      <g>
       <use xlink:href="#m6a44e2e222" x="55.345313" y="127.610708" style="stroke: #000000; stroke-width: 0.8"/>
      </g>
     </g>
     <g id="text_10">
      <!-- −200 -->
      <g transform="translate(20.878125 131.409927) scale(0.1 -0.1)">
       <use xlink:href="#DejaVuSans-2212"/>
       <use xlink:href="#DejaVuSans-32" transform="translate(83.789062 0)"/>
       <use xlink:href="#DejaVuSans-30" transform="translate(147.412109 0)"/>
       <use xlink:href="#DejaVuSans-30" transform="translate(211.035156 0)"/>
      </g>
     </g>
    </g>
    <g id="ytick_5">
     <g id="line2d_19">
      <path d="M 55.345313 96.662841 
L 417.185313 96.662841 
" clip-path="url(#p6b1bf7dc87)" style="fill: none; stroke: #d9d9d9; stroke-opacity: 0.3; stroke-width: 0.5; stroke-linecap: square"/>
     </g>
     <g id="line2d_20">
      <g>
       <use xlink:href="#m6a44e2e222" x="55.345313" y="96.662841" style="stroke: #000000; stroke-width: 0.8"/>
      </g>
     </g>
     <g id="text_11">
      <!-- −190 -->
      <g transform="translate(20.878125 100.46206) scale(0.1 -0.1)">
       <defs>
        <path id="DejaVuSans-39" d="M 703 97 
L 703 672 
Q 941 559 1184 500 
Q 1428 441 1663 441 
Q 2288 441 2617 861 
Q 2947 1281 2994 2138 
Q 2813 1869 2534 1725 
Q 2256 1581 1919 1581 
Q 1219 1581 811 2004 
Q 403 2428 403 3163 
Q 403 3881 828 4315 
Q 1253 4750 1959 4750 
Q 2769 4750 3195 4129 
Q 3622 3509 3622 2328 
Q 3622 1225 3098 567 
Q 2575 -91 1691 -91 
Q 1453 -91 1209 -44 
Q 966 3 703 97 
z
M 1959 2075 
Q 2384 2075 2632 2365 
Q 2881 2656 2881 3163 
Q 2881 3666 2632 3958 
Q 2384 4250 1959 4250 
Q 1534 4250 1286 3958 
Q 1038 3666 1038 3163 
Q 1038 2656 1286 2365 
Q 1534 2075 1959 2075 
z
" transform="scale(0.015625)"/>
       </defs>
       <use xlink:href="#DejaVuSans-2212"/>
       <use xlink:href="#DejaVuSans-31" transform="translate(83.789062 0)"/>
       <use xlink:href="#DejaVuSans-39" transform="translate(147.412109 0)"/>
       <use xlink:href="#DejaVuSans-30" transform="translate(211.035156 0)"/>
      </g>
     </g>
    </g>
    <g id="ytick_6">
     <g id="line2d_21">
      <path d="M 55.345313 65.714974 
L 417.185313 65.714974 
" clip-path="url(#p6b1bf7dc87)" style="fill: none; stroke: #d9d9d9; stroke-opacity: 0.3; stroke-width: 0.5; stroke-linecap: square"/>
     </g>
     <g id="line2d_22">
      <g>
       <use xlink:href="#m6a44e2e222" x="55.345313" y="65.714974" style="stroke: #000000; stroke-width: 0.8"/>
      </g>
     </g>
     <g id="text_12">
      <!-- −180 -->
      <g transform="translate(20.878125 69.514193) scale(0.1 -0.1)">
       <use xlink:href="#DejaVuSans-2212"/>
       <use xlink:href="#DejaVuSans-31" transform="translate(83.789062 0)"/>
       <use xlink:href="#DejaVuSans-38" transform="translate(147.412109 0)"/>
       <use xlink:href="#DejaVuSans-30" transform="translate(211.035156 0)"/>
      </g>
     </g>
    </g>
    <g id="ytick_7">
     <g id="line2d_23">
      <path d="M 55.345313 34.767107 
L 417.185313 34.767107 
" clip-path="url(#p6b1bf7dc87)" style="fill: none; stroke: #d9d9d9; stroke-opacity: 0.3; stroke-width: 0.5; stroke-linecap: square"/>
     </g>
     <g id="line2d_24">
      <g>
       <use xlink:href="#m6a44e2e222" x="55.345313" y="34.767107" style="stroke: #000000; stroke-width: 0.8"/>
      </g>
     </g>
     <g id="text_13">
      <!-- −170 -->
      <g transform="translate(20.878125 38.566326) scale(0.1 -0.1)">
       <defs>
        <path id="DejaVuSans-37" d="M 525 4666 
L 3525 4666 
L 3525 4397 
L 1831 0 
L 1172 0 
L 2766 4134 
L 525 4134 
L 525 4666 
z
" transform="scale(0.015625)"/>
       </defs>
       <use xlink:href="#DejaVuSans-2212"/>
       <use xlink:href="#DejaVuSans-31" transform="translate(83.789062 0)"/>
       <use xlink:href="#DejaVuSans-37" transform="translate(147.412109 0)"/>
       <use xlink:href="#DejaVuSans-30" transform="translate(211.035156 0)"/>
      </g>
     </g>
    </g>
    <g id="text_14">
     <!-- y [m] -->
     <g transform="translate(14.798438 144.77875) rotate(-90) scale(0.1 -0.1)">
      <defs>
       <path id="DejaVuSans-79" d="M 2059 -325 
Q 1816 -950 1584 -1140 
Q 1353 -1331 966 -1331 
L 506 -1331 
L 506 -850 
L 844 -850 
Q 1081 -850 1212 -737 
Q 1344 -625 1503 -206 
L 1606 56 
L 191 3500 
L 800 3500 
L 1894 763 
L 2988 3500 
L 3597 3500 
L 2059 -325 
z
" transform="scale(0.015625)"/>
      </defs>
      <use xlink:href="#DejaVuSans-79"/>
      <use xlink:href="#DejaVuSans-20" transform="translate(59.179688 0)"/>
      <use xlink:href="#DejaVuSans-5b" transform="translate(90.966797 0)"/>
      <use xlink:href="#DejaVuSans-6d" transform="translate(129.980469 0)"/>
      <use xlink:href="#DejaVuSans-5d" transform="translate(227.392578 0)"/>
     </g>
    </g>
   </g>
   <g id="line2d_25">
    <path d="M 294.212001 220.383192 
L 294.182109 220.18344 
L 294.261916 219.193605 
L 294.292233 214.710471 
L 294.181873 123.435986 
L 293.925643 120.580241 
L 293.286389 116.137765 
L 292.804057 113.743716 
L 292.508537 112.533823 
L 291.784991 109.766479 
L 291.093509 107.458658 
L 290.667466 106.278941 
L 289.952845 104.269851 
L 288.600528 101.060833 
L 285.413893 94.933735 
L 282.28454 90.06125 
L 279.769459 86.743431 
L 277.807875 84.437877 
L 275.175824 81.596865 
L 269.191149 75.535312 
L 264.102526 70.579337 
L 261.988838 69.165206 
L 260.487534 68.350473 
L 258.580351 67.453572 
L 257.517038 66.962504 
L 255.305693 66.090064 
L 249.501929 64.129945 
L 246.76594 63.419007 
L 243.46191 62.747028 
L 239.238454 62.161466 
L 237.057615 61.958267 
L 233.232293 61.800874 
L 229.486494 61.857352 
L 222.401059 62.551526 
L 214.761135 64.111669 
L 212.827224 64.658555 
L 206.127031 67.072627 
L 205.030804 67.515623 
L 201.64045 69.1143 
L 194.864607 73.019051 
L 192.828223 74.393231 
L 188.484868 77.723943 
L 184.303817 81.432152 
L 179.19451 86.443944 
L 172.364219 93.390497 
L 170.766156 95.766413 
L 169.748837 97.69173 
L 169.228963 98.725293 
L 168.416355 100.47886 
L 166.933892 104.211909 
L 164.524118 112.059755 
L 163.248161 119.29158 
L 162.744436 126.429716 
L 162.804645 130.499604 
L 163.153763 135.350556 
L 163.546231 138.259757 
L 163.824514 139.929174 
L 164.210843 142.109304 
L 164.664606 144.153764 
L 167.277485 152.771151 
L 170.831087 160.814923 
L 172.801407 164.353273 
L 177.31245 171.126566 
L 179.089062 173.415214 
L 182.6242 177.470605 
L 186.677702 181.652977 
L 195.606617 190.5231 
L 197.664252 191.99404 
L 198.977751 192.754372 
L 201.888228 194.261438 
L 203.004572 194.811063 
L 205.455241 195.825359 
L 210.693986 197.737123 
L 213.668591 198.643515 
L 216.003611 199.21524 
L 217.803316 199.618522 
L 219.362231 199.922872 
L 224.420916 200.690713 
L 231.345416 201.114915 
L 235.200252 201.058389 
L 238.246352 200.873276 
L 245.332023 200.005748 
L 253.024742 198.232253 
L 254.072 197.937489 
L 254.958181 197.640977 
L 256.004636 197.341963 
L 257.077678 196.936651 
L 261.765333 195.199139 
L 269.182933 191.571161 
L 273.64425 188.950915 
L 279.873585 184.510187 
L 284.065921 180.958757 
L 287.631377 177.566042 
L 296.690721 168.549246 
L 298.969169 166.116143 
L 299.52786 165.283229 
L 301.273447 162.393106 
L 302.031466 160.936805 
L 303.780878 157.133961 
L 304.257213 156.01365 
L 304.604867 155.052951 
L 305.628702 152.406733 
L 305.966533 151.282833 
L 307.359556 146.77996 
L 307.97279 144.095066 
L 308.479962 141.729823 
L 308.703325 140.492919 
L 309.080304 138.044091 
L 309.265039 136.617257 
L 309.790391 127.778396 
L 309.687304 123.896029 
L 309.390415 119.960254 
L 308.845701 115.622141 
L 308.447142 113.063757 
L 307.919995 110.58754 
L 307.671084 109.457879 
L 307.434782 108.543269 
L 307.180298 107.441186 
L 306.90669 106.554108 
L 306.630815 105.425863 
L 306.277212 104.405286 
L 304.321767 98.746685 
L 301.496008 92.197747 
L 299.256708 88.042857 
L 298.046673 85.970914 
L 297.205165 84.618126 
L 295.82579 82.500424 
L 294.861219 81.126243 
L 292.385475 77.806488 
L 290.852059 75.889577 
L 288.373009 73.064432 
L 285.365773 69.888658 
L 276.716417 61.188679 
L 273.300327 57.929652 
L 271.315274 56.61653 
L 270.183393 55.947479 
L 269.312276 55.502122 
L 261.945913 52.059587 
L 254.695198 49.499645 
L 253.568559 49.162758 
L 252.441731 48.9019 
L 249.514396 48.150303 
L 246.799185 47.624715 
L 244.296807 47.220441 
L 242.547017 46.975214 
L 234.678724 46.355888 
L 229.960091 46.374446 
L 223.247054 46.872929 
L 217.56248 47.680248 
L 216.297337 47.929018 
L 215.247387 48.158473 
L 214.036692 48.386181 
L 213.148763 48.630558 
L 211.965646 48.876966 
L 210.997722 49.180325 
L 208.01575 49.981977 
L 207.102794 50.310458 
L 206.083256 50.60272 
L 205.170913 50.94447 
L 204.205965 51.258643 
L 203.321011 51.58481 
L 202.249717 51.982567 
L 201.312111 52.361907 
L 200.322181 52.753808 
L 199.358791 53.176168 
L 198.396723 53.580441 
L 197.407691 54.043271 
L 196.446662 54.469739 
L 195.40559 55.005906 
L 194.472375 55.429871 
L 193.273013 56.094766 
L 189.841245 57.996519 
L 188.726034 58.617781 
L 185.228296 60.863692 
L 181.559376 63.49291 
L 176.807072 67.344819 
L 173.050743 70.800151 
L 166.777349 76.999499 
L 159.79316 84.111143 
L 157.505739 87.647792 
L 155.701313 91.06511 
L 154.678658 93.219598 
L 151.531407 101.178323 
L 150.987779 102.812417 
L 150.206055 105.654751 
L 149.884563 106.674714 
L 149.301457 109.064797 
L 148.109839 115.519951 
L 147.333215 123.953311 
L 147.282734 129.049726 
L 147.72606 136.114289 
L 148.618239 142.58139 
L 149.208334 145.757966 
L 149.419419 146.646272 
L 149.67121 147.748922 
L 149.93221 148.798116 
L 150.203552 149.873188 
L 150.477869 150.894946 
L 150.773483 151.91557 
L 151.095966 153.017181 
L 151.408533 154.01018 
L 151.744759 155.084118 
L 152.102565 156.129959 
L 152.43048 157.095805 
L 152.86134 158.274673 
L 153.207577 159.186024 
L 153.656145 160.33703 
L 154.049463 161.274211 
L 154.493639 162.343758 
L 154.930166 163.306582 
L 155.388651 164.348173 
L 155.865789 165.336591 
L 156.349067 166.377001 
L 156.917014 167.444046 
L 157.362324 168.376552 
L 158.037514 169.548383 
L 162.355888 176.741156 
L 168.028751 184.301887 
L 170.279904 186.892194 
L 173.912604 190.74618 
L 183.212217 200.094669 
L 186.4465 203.183175 
L 189.744203 205.418933 
L 197.841715 209.462991 
L 198.935959 209.921806 
L 199.896469 210.325466 
L 200.965449 210.744048 
L 201.927234 211.121168 
L 203.02417 211.526056 
L 203.960265 211.863981 
L 205.192353 212.282611 
L 206.156451 212.580161 
L 207.202151 212.91072 
L 208.193969 213.205484 
L 209.374725 213.550587 
L 210.42118 213.811729 
L 211.441804 214.087793 
L 212.542849 214.339301 
L 213.671755 214.613523 
L 214.881317 214.835281 
L 215.795831 215.049766 
L 217.086947 215.255232 
L 218.163389 215.480154 
L 221.097902 215.892975 
L 230.261749 216.570479 
L 235.278028 216.531662 
L 244.148575 215.816427 
L 253.438602 214.080993 
L 254.567791 213.783395 
L 255.804979 213.465161 
L 256.852756 213.183856 
L 257.927922 212.8864 
L 258.974944 212.558391 
L 260.156786 212.208282 
L 261.176183 211.863556 
L 262.249743 211.516045 
L 263.402213 211.097179 
L 264.367634 210.764826 
L 265.679859 210.262943 
L 266.617418 209.873545 
L 267.660615 209.443535 
L 268.570549 209.07482 
L 270.04045 208.439061 
L 271.082655 207.912103 
L 272.016814 207.514488 
L 273.057791 206.969254 
L 273.937361 206.5519 
L 274.977205 206.007989 
L 276.148564 205.404908 
L 277.346084 204.690429 
L 284.533001 200.259854 
L 290.513708 195.768408 
L 296.474488 190.520456 
L 301.457663 185.63744 
L 310.954006 176.020396 
L 312.097881 174.510828 
L 315.421273 168.784273 
L 315.983695 167.641436 
L 316.490725 166.604757 
L 316.92796 165.645852 
L 317.467621 164.474021 
L 317.876098 163.540192 
L 318.364333 162.42007 
L 318.74542 161.458285 
L 319.217175 160.309924 
L 319.602701 159.266727 
L 320.003008 158.224003 
L 320.401851 157.072619 
L 320.734771 156.135862 
L 321.179042 154.769001 
L 321.465637 153.777514 
L 321.774709 152.731106 
L 322.067962 151.738768 
L 322.465341 150.28889 
L 322.705138 149.161117 
L 322.924865 148.327967 
L 323.181379 147.22645 
L 323.518832 145.693696 
L 324.02369 142.949727 
L 325.025898 134.599101 
L 325.198119 131.498695 
L 325.250772 126.320584 
L 325.136068 123.164833 
L 324.225095 113.836509 
L 323.993609 112.516634 
L 323.733696 111.061845 
L 323.533377 109.715573 
L 323.332728 108.880676 
L 323.095528 107.723578 
L 322.844728 106.592972 
L 322.582265 105.517286 
L 322.269461 104.225934 
L 321.991934 103.177826 
L 321.6669 101.94097 
L 321.364627 100.94731 
L 320.986374 99.630788 
L 320.666676 98.664753 
L 320.273358 97.402916 
L 319.899401 96.357311 
L 319.515339 95.203802 
L 319.06696 94.025123 
L 318.727665 93.060127 
L 318.132942 91.561137 
L 317.697313 90.597417 
L 317.296439 89.661888 
L 316.890607 88.672242 
L 316.182597 87.09642 
L 315.619797 86.028243 
L 315.220435 85.121425 
L 314.672368 84.081015 
L 314.151927 83.042257 
L 313.570852 81.976535 
L 312.94534 80.806074 
L 312.188313 79.583053 
L 310.497174 76.689954 
L 309.064248 74.464726 
L 306.99561 71.531252 
L 301.326715 64.356519 
L 297.157281 59.845476 
L 289.731323 52.356098 
L 282.7443 45.509516 
L 280.601428 44.05194 
L 272.173357 39.554922 
L 268.359274 37.893108 
L 267.478477 37.547533 
L 266.435752 37.152043 
L 265.31341 36.697524 
L 264.082173 36.262886 
L 263.145794 35.914477 
L 261.72576 35.440739 
L 260.76152 35.138797 
L 259.554555 34.772349 
L 258.589371 34.474516 
L 257.032485 34.035722 
L 255.93196 33.786528 
L 255.045213 33.553815 
L 253.997766 33.27912 
L 252.008463 32.82786 
L 246.62687 31.890017 
L 245.145635 31.655084 
L 241.669997 31.29095 
L 238.515946 31.030942 
L 235.630639 30.89886 
L 231.34211 30.874493 
L 224.248694 31.207319 
L 221.983799 31.420199 
L 219.072473 31.800341 
L 217.779232 32.008924 
L 216.270231 32.261377 
L 214.923675 32.45362 
L 214.061625 32.631178 
L 212.904197 32.87513 
L 211.504091 33.164747 
L 210.374288 33.413563 
L 209.190132 33.686558 
L 208.141741 33.970791 
L 206.662537 34.34182 
L 205.641724 34.628367 
L 204.405292 34.964545 
L 203.331589 35.318102 
L 201.961801 35.720203 
L 200.942593 36.079001 
L 199.681275 36.48115 
L 198.502171 36.922918 
L 197.429555 37.289697 
L 196.064063 37.828413 
L 195.179866 38.155525 
L 193.49444 38.850596 
L 192.477925 39.347851 
L 191.623241 39.716141 
L 190.634114 40.130284 
L 188.685564 41.047584 
L 183.756459 43.652672 
L 182.347759 44.43841 
L 179.692851 46.038882 
L 172.39652 51.049257 
L 170.764598 52.319076 
L 167.771812 54.719028 
L 164.007927 58.057625 
L 160.159041 61.756626 
L 148.473926 73.42748 
L 147.356637 74.723176 
L 146.358397 76.107037 
L 145.889381 76.893531 
L 145.143215 78.078679 
L 144.63184 78.975675 
L 144.021251 80.060994 
L 143.398572 81.199911 
L 142.830342 82.262044 
L 142.266455 83.350621 
L 141.791631 84.335167 
L 141.15115 85.638656 
L 140.710704 86.598268 
L 140.128117 87.850425 
L 139.744244 88.784726 
L 139.138566 90.172176 
L 138.780098 91.08093 
L 138.236234 92.389754 
L 137.85628 93.460104 
L 137.395765 94.636846 
L 136.984455 95.868981 
L 136.620746 96.859477 
L 136.127032 98.414426 
L 135.83751 99.406102 
L 135.49524 100.613823 
L 135.193912 101.60635 
L 134.723385 103.378901 
L 134.490624 104.560743 
L 134.253141 105.420999 
L 133.995967 106.522705 
L 133.637546 108.19028 
L 133.438266 109.535324 
L 133.21325 110.504239 
L 133.022848 111.876908 
L 132.834902 112.873307 
L 132.659753 114.327483 
L 132.465715 115.59376 
L 132.141059 118.908463 
L 131.79435 127.079642 
L 131.976724 132.987107 
L 132.638833 140.348748 
L 132.833863 141.723023 
L 133.057463 143.151557 
L 133.250226 144.525312 
L 133.437794 145.522325 
L 133.67183 146.706859 
L 133.962297 148.188141 
L 134.199119 149.318227 
L 134.480094 150.610382 
L 134.752569 151.659056 
L 135.129358 153.219388 
L 135.40632 154.240485 
L 135.766345 155.638654 
L 136.086043 156.632173 
L 136.5195 158.136688 
L 136.852326 159.102487 
L 137.314778 160.605916 
L 137.682643 161.597734 
L 138.142072 162.992645 
L 138.594229 164.144312 
L 138.975175 165.243279 
L 139.597381 166.768666 
L 139.987205 167.705801 
L 140.583958 169.068979 
L 140.978928 170.005169 
L 141.738883 171.660844 
L 142.287753 172.702246 
L 142.716629 173.58191 
L 143.156462 174.542467 
L 148.519118 183.818233 
L 150.536566 186.807382 
L 151.449806 188.128201 
L 157.62134 195.934018 
L 161.224102 199.874044 
L 166.082184 204.831861 
L 176.554384 215.210135 
L 180.347594 217.899751 
L 183.334996 219.541353 
L 184.449499 220.189532 
L 185.298422 220.631064 
L 186.282259 221.105747 
L 187.797589 221.871982 
L 188.809902 222.367207 
L 189.928088 222.90904 
L 191.021954 223.365589 
L 192.355193 223.973628 
L 193.316977 224.351646 
L 194.732006 224.959827 
L 195.748474 225.325331 
L 197.111841 225.873397 
L 198.209721 226.245276 
L 199.413947 226.706406 
L 200.834548 227.157383 
L 201.772107 227.481283 
L 203.408421 227.978349 
L 204.427487 228.260977 
L 205.71643 228.607119 
L 206.736299 228.898861 
L 208.48283 229.337607 
L 209.665098 229.571218 
L 210.660269 229.800579 
L 211.762446 230.055156 
L 215.637824 230.738421 
L 216.876051 230.955079 
L 227.549278 231.967439 
L 234.077202 232.027979 
L 239.768764 231.747948 
L 244.56881 231.293194 
L 246.132117 231.123806 
L 247.183531 230.954513 
L 248.530605 230.759294 
L 249.851141 230.539425 
L 251.089839 230.322814 
L 252.490701 230.066395 
L 253.648035 229.824709 
L 255.128986 229.520973 
L 256.20486 229.261815 
L 257.711878 228.920348 
L 258.733258 228.6372 
L 260.346905 228.231888 
L 261.340659 227.933913 
L 262.899528 227.512828 
L 263.865704 227.183875 
L 265.477084 226.706595 
L 266.442363 226.35318 
L 268.025646 225.847472 
L 269.04372 225.45066 
L 270.411148 224.983155 
L 271.66916 224.4638 
L 272.740785 224.081107 
L 274.425691 223.372436 
L 275.3624 222.967218 
L 276.751503 222.335426 
L 277.713855 221.908485 
L 279.341527 221.133041 
L 280.382551 220.598055 
L 281.554854 220.005411 
L 282.594604 219.469197 
L 284.111397 218.657769 
L 285.255792 217.985365 
L 286.265319 217.428232 
L 287.381805 216.777739 
L 289.053488 215.778176 
L 292.285268 213.646686 
L 293.369312 212.951095 
L 296.062281 211.030312 
L 301.793133 206.516625 
L 304.619364 204.068081 
L 308.968244 199.962539 
L 317.724985 191.25798 
L 323.601189 185.225374 
L 324.154072 184.471039 
L 324.992417 183.214396 
L 325.703213 182.084782 
L 326.383928 180.949879 
L 327.073521 179.760811 
L 327.684535 178.674075 
L 328.3559 177.454832 
L 328.864867 176.444975 
L 329.622791 174.983669 
L 330.128263 173.971922 
L 330.742063 172.748052 
L 331.182321 171.708113 
L 331.888678 170.188959 
L 332.277415 169.25428 
L 332.917471 167.813327 
L 333.301581 166.770555 
L 333.900223 165.327666 
L 334.271204 164.256891 
L 334.799815 162.919497 
L 335.218964 161.606517 
L 335.619696 160.535459 
L 336.144198 158.845973 
L 336.442646 157.854202 
L 336.833083 156.458299 
L 337.137575 155.465725 
L 337.650272 153.504897 
L 337.883788 152.322913 
L 338.102004 151.408587 
L 338.386285 150.333657 
L 340.130266 139.456994 
L 340.728861 129.074943 
L 340.665488 124.569567 
L 340.112935 116.42384 
L 339.938589 114.941189 
L 339.730432 113.404374 
L 339.555566 111.922195 
L 339.379803 110.843959 
L 339.161115 109.604977 
L 338.883965 107.988308 
L 338.657296 106.803821 
L 338.374337 105.322445 
L 338.118107 104.246287 
L 337.743017 102.523556 
L 337.478334 101.475023 
L 337.114389 99.914596 
L 336.810133 98.920464 
L 336.329831 97.119296 
L 336.029022 96.152884 
L 335.585365 94.567712 
L 335.209189 93.52154 
L 334.727376 91.937644 
L 334.304921 90.838819 
L 333.828917 89.36344 
L 333.319478 88.104861 
L 332.908027 86.898699 
L 332.247948 85.320091 
L 331.898264 84.40959 
L 331.083625 82.538438 
L 330.607998 81.549028 
L 330.047984 80.374789 
L 329.652305 79.439685 
L 324.208331 69.485754 
L 321.726731 65.618121 
L 320.771652 64.269204 
L 320.060384 63.186341 
L 318.21426 60.654118 
L 314.728469 56.237851 
L 310.89408 51.843307 
L 309.607262 50.461807 
L 309.607262 50.461807 
" clip-path="url(#p6b1bf7dc87)" style="fill: none; stroke: #1f77b4; stroke-width: 1.2; stroke-linecap: square"/>
   </g>
   <g id="patch_3">
    <path d="M 55.345313 242.118438 
L 55.345313 20.798437 
" style="fill: none; stroke: #000000; stroke-width: 0.8; stroke-linejoin: miter; stroke-linecap: square"/>
   </g>
   <g id="patch_4">
    <path d="M 55.345312 242.118437 
L 417.185313 242.118437 
" style="fill: none; stroke: #000000; stroke-width: 0.8; stroke-linejoin: miter; stroke-linecap: square"/>
   </g>
   <g id="text_15">
    <!-- XY trajectory -->
    <g transform="translate(203.868438 14.798437) scale(0.1 -0.1)">
     <defs>
      <path id="DejaVuSans-58" d="M 403 4666 
L 1081 4666 
L 2241 2931 
L 3406 4666 
L 4084 4666 
L 2584 2425 
L 4184 0 
L 3506 0 
L 2194 1984 
L 872 0 
L 191 0 
L 1856 2491 
L 403 4666 
z
" transform="scale(0.015625)"/>
      <path id="DejaVuSans-59" d="M -13 4666 
L 666 4666 
L 1959 2747 
L 3244 4666 
L 3922 4666 
L 2272 2222 
L 2272 0 
L 1638 0 
L 1638 2222 
L -13 4666 
z
" transform="scale(0.015625)"/>
      <path id="DejaVuSans-74" d="M 1172 4494 
L 1172 3500 
L 2356 3500 
L 2356 3053 
L 1172 3053 
L 1172 1153 
Q 1172 725 1289 603 
Q 1406 481 1766 481 
L 2356 481 
L 2356 0 
L 1766 0 
Q 1100 0 847 248 
Q 594 497 594 1153 
L 594 3053 
L 172 3053 
L 172 3500 
L 594 3500 
L 594 4494 
L 1172 4494 
z
" transform="scale(0.015625)"/>
      <path id="DejaVuSans-72" d="M 2631 2963 
Q 2534 3019 2420 3045 
Q 2306 3072 2169 3072 
Q 1681 3072 1420 2755 
Q 1159 2438 1159 1844 
L 1159 0 
L 581 0 
L 581 3500 
L 1159 3500 
L 1159 2956 
Q 1341 3275 1631 3429 
Q 1922 3584 2338 3584 
Q 2397 3584 2469 3576 
Q 2541 3569 2628 3553 
L 2631 2963 
z
" transform="scale(0.015625)"/>
      <path id="DejaVuSans-61" d="M 2194 1759 
Q 1497 1759 1228 1600 
Q 959 1441 959 1056 
Q 959 750 1161 570 
Q 1363 391 1709 391 
Q 2188 391 2477 730 
Q 2766 1069 2766 1631 
L 2766 1759 
L 2194 1759 
z
M 3341 1997 
L 3341 0 
L 2766 0 
L 2766 531 
Q 2569 213 2275 61 
Q 1981 -91 1556 -91 
Q 1019 -91 701 211 
Q 384 513 384 1019 
Q 384 1609 779 1909 
Q 1175 2209 1959 2209 
L 2766 2209 
L 2766 2266 
Q 2766 2663 2505 2880 
Q 2244 3097 1772 3097 
Q 1472 3097 1187 3025 
Q 903 2953 641 2809 
L 641 3341 
Q 956 3463 1253 3523 
Q 1550 3584 1831 3584 
Q 2591 3584 2966 3190 
Q 3341 2797 3341 1997 
z
" transform="scale(0.015625)"/>
      <path id="DejaVuSans-6a" d="M 603 3500 
L 1178 3500 
L 1178 -63 
Q 1178 -731 923 -1031 
Q 669 -1331 103 -1331 
L -116 -1331 
L -116 -844 
L 38 -844 
Q 366 -844 484 -692 
Q 603 -541 603 -63 
L 603 3500 
z
M 603 4863 
L 1178 4863 
L 1178 4134 
L 603 4134 
L 603 4863 
z
" transform="scale(0.015625)"/>
      <path id="DejaVuSans-65" d="M 3597 1894 
L 3597 1613 
L 953 1613 
Q 991 1019 1311 708 
Q 1631 397 2203 397 
Q 2534 397 2845 478 
Q 3156 559 3463 722 
L 3463 178 
Q 3153 47 2828 -22 
Q 2503 -91 2169 -91 
Q 1331 -91 842 396 
Q 353 884 353 1716 
Q 353 2575 817 3079 
Q 1281 3584 2069 3584 
Q 2775 3584 3186 3129 
Q 3597 2675 3597 1894 
z
M 3022 2063 
Q 3016 2534 2758 2815 
Q 2500 3097 2075 3097 
Q 1594 3097 1305 2825 
Q 1016 2553 972 2059 
L 3022 2063 
z
" transform="scale(0.015625)"/>
      <path id="DejaVuSans-63" d="M 3122 3366 
L 3122 2828 
Q 2878 2963 2633 3030 
Q 2388 3097 2138 3097 
Q 1578 3097 1268 2742 
Q 959 2388 959 1747 
Q 959 1106 1268 751 
Q 1578 397 2138 397 
Q 2388 397 2633 464 
Q 2878 531 3122 666 
L 3122 134 
Q 2881 22 2623 -34 
Q 2366 -91 2075 -91 
Q 1284 -91 818 406 
Q 353 903 353 1747 
Q 353 2603 823 3093 
Q 1294 3584 2113 3584 
Q 2378 3584 2631 3529 
Q 2884 3475 3122 3366 
z
" transform="scale(0.015625)"/>
      <path id="DejaVuSans-6f" d="M 1959 3097 
Q 1497 3097 1228 2736 
Q 959 2375 959 1747 
Q 959 1119 1226 758 
Q 1494 397 1959 397 
Q 2419 397 2687 759 
Q 2956 1122 2956 1747 
Q 2956 2369 2687 2733 
Q 2419 3097 1959 3097 
z
M 1959 3584 
Q 2709 3584 3137 3096 
Q 3566 2609 3566 1747 
Q 3566 888 3137 398 
Q 2709 -91 1959 -91 
Q 1206 -91 779 398 
Q 353 888 353 1747 
Q 353 2609 779 3096 
Q 1206 3584 1959 3584 
z
" transform="scale(0.015625)"/>
     </defs>
     <use xlink:href="#DejaVuSans-58"/>
     <use xlink:href="#DejaVuSans-59" transform="translate(68.505859 0)"/>
     <use xlink:href="#DejaVuSans-20" transform="translate(129.589844 0)"/>
     <use xlink:href="#DejaVuSans-74" transform="translate(161.376953 0)"/>
     <use xlink:href="#DejaVuSans-72" transform="translate(200.585938 0)"/>
     <use xlink:href="#DejaVuSans-61" transform="translate(241.699219 0)"/>
     <use xlink:href="#DejaVuSans-6a" transform="translate(302.978516 0)"/>
     <use xlink:href="#DejaVuSans-65" transform="translate(330.761719 0)"/>
     <use xlink:href="#DejaVuSans-63" transform="translate(392.285156 0)"/>
     <use xlink:href="#DejaVuSans-74" transform="translate(447.265625 0)"/>
     <use xlink:href="#DejaVuSans-6f" transform="translate(486.474609 0)"/>
     <use xlink:href="#DejaVuSans-72" transform="translate(547.65625 0)"/>
     <use xlink:href="#DejaVuSans-79" transform="translate(588.769531 0)"/>
    </g>
   </g>
   <g id="legend_1">
    <g id="line2d_26">
     <path d="M 315.604063 33.896875 
L 325.604063 33.896875 
L 335.604063 33.896875 
" style="fill: none; stroke: #1f77b4; stroke-width: 1.2; stroke-linecap: square"/>
    </g>
    <g id="text_16">
     <!-- Ground truth -->
     <g transform="translate(343.604063 37.396875) scale(0.1 -0.1)">
      <defs>
       <path id="DejaVuSans-47" d="M 3809 666 
L 3809 1919 
L 2778 1919 
L 2778 2438 
L 4434 2438 
L 4434 434 
Q 4069 175 3628 42 
Q 3188 -91 2688 -91 
Q 1594 -91 976 548 
Q 359 1188 359 2328 
Q 359 3472 976 4111 
Q 1594 4750 2688 4750 
Q 3144 4750 3555 4637 
Q 3966 4525 4313 4306 
L 4313 3634 
Q 3963 3931 3569 4081 
Q 3175 4231 2741 4231 
Q 1884 4231 1454 3753 
Q 1025 3275 1025 2328 
Q 1025 1384 1454 906 
Q 1884 428 2741 428 
Q 3075 428 3337 486 
Q 3600 544 3809 666 
z
" transform="scale(0.015625)"/>
       <path id="DejaVuSans-75" d="M 544 1381 
L 544 3500 
L 1119 3500 
L 1119 1403 
Q 1119 906 1312 657 
Q 1506 409 1894 409 
Q 2359 409 2629 706 
Q 2900 1003 2900 1516 
L 2900 3500 
L 3475 3500 
L 3475 0 
L 2900 0 
L 2900 538 
Q 2691 219 2414 64 
Q 2138 -91 1772 -91 
Q 1169 -91 856 284 
Q 544 659 544 1381 
z
M 1991 3584 
L 1991 3584 
z
" transform="scale(0.015625)"/>
       <path id="DejaVuSans-6e" d="M 3513 2113 
L 3513 0 
L 2938 0 
L 2938 2094 
Q 2938 2591 2744 2837 
Q 2550 3084 2163 3084 
Q 1697 3084 1428 2787 
Q 1159 2491 1159 1978 
L 1159 0 
L 581 0 
L 581 3500 
L 1159 3500 
L 1159 2956 
Q 1366 3272 1645 3428 
Q 1925 3584 2291 3584 
Q 2894 3584 3203 3211 
Q 3513 2838 3513 2113 
z
" transform="scale(0.015625)"/>
       <path id="DejaVuSans-64" d="M 2906 2969 
L 2906 4863 
L 3481 4863 
L 3481 0 
L 2906 0 
L 2906 525 
Q 2725 213 2448 61 
Q 2172 -91 1784 -91 
Q 1150 -91 751 415 
Q 353 922 353 1747 
Q 353 2572 751 3078 
Q 1150 3584 1784 3584 
Q 2172 3584 2448 3432 
Q 2725 3281 2906 2969 
z
M 947 1747 
Q 947 1113 1208 752 
Q 1469 391 1925 391 
Q 2381 391 2643 752 
Q 2906 1113 2906 1747 
Q 2906 2381 2643 2742 
Q 2381 3103 1925 3103 
Q 1469 3103 1208 2742 
Q 947 2381 947 1747 
z
" transform="scale(0.015625)"/>
       <path id="DejaVuSans-68" d="M 3513 2113 
L 3513 0 
L 2938 0 
L 2938 2094 
Q 2938 2591 2744 2837 
Q 2550 3084 2163 3084 
Q 1697 3084 1428 2787 
Q 1159 2491 1159 1978 
L 1159 0 
L 581 0 
L 581 4863 
L 1159 4863 
L 1159 2956 
Q 1366 3272 1645 3428 
Q 1925 3584 2291 3584 
Q 2894 3584 3203 3211 
Q 3513 2838 3513 2113 
z
" transform="scale(0.015625)"/>
      </defs>
      <use xlink:href="#DejaVuSans-47"/>
      <use xlink:href="#DejaVuSans-72" transform="translate(77.490234 0)"/>
      <use xlink:href="#DejaVuSans-6f" transform="translate(116.353516 0)"/>
      <use xlink:href="#DejaVuSans-75" transform="translate(177.535156 0)"/>
      <use xlink:href="#DejaVuSans-6e" transform="translate(240.914062 0)"/>
      <use xlink:href="#DejaVuSans-64" transform="translate(304.292969 0)"/>
      <use xlink:href="#DejaVuSans-20" transform="translate(367.769531 0)"/>
      <use xlink:href="#DejaVuSans-74" transform="translate(399.556641 0)"/>
      <use xlink:href="#DejaVuSans-72" transform="translate(438.765625 0)"/>
      <use xlink:href="#DejaVuSans-75" transform="translate(479.878906 0)"/>
      <use xlink:href="#DejaVuSans-74" transform="translate(543.257812 0)"/>
      <use xlink:href="#DejaVuSans-68" transform="translate(582.466797 0)"/>
     </g>
    </g>
   </g>
  </g>
 </g>
 <defs>
  <clipPath id="p6b1bf7dc87">
   <rect x="55.345313" y="20.798437" width="361.84" height="221.32"/>
  </clipPath>
 </defs>
</svg>
