<?xml version="1.0" encoding="utf-8" standalone="no"?>
<!DOCTYPE svg PUBLIC "-//W3C//DTD SVG 1.1//EN"
  "http://www.w3.org/Graphics/SVG/1.1/DTD/svg11.dtd">
<svg xmlns:xlink="http://www.w3.org/1999/xlink" width="446.4pt" height="324pt" viewBox="0 0 446.4 324" xmlns="http://www.w3.org/2000/svg" version="1.1">
 <metadata>
  <rdf:RDF xmlns:dc="http://purl.org/dc/elements/1.1/" xmlns:cc="http://creativecommons.org/ns#" xmlns:rdf="http://www.w3.org/1999/02/22-rdf-syntax-ns#">
   <cc:Work>
    <dc:type rdf:resource="http://purl.org/dc/dcmitype/StillImage"/>
    <dc:date>2026-03-31T15:17:51.076901</dc:date>
    <dc:format>image/svg+xml</dc:format>
    <dc:creator>
     <cc:Agent>
      <dc:title>Matplotlib v3.8.4, https://matplotlib.org/</dc:title>
     </cc:Agent>
    </dc:creator>
   </cc:Work>
  </rdf:RDF>
 </metadata>
 <defs>
  <style type="text/css">*{stroke-linejoin: round; stroke-linecap: butt}</style>
 </defs>
 <g id="figure_1">
  <g id="patch_1">
   <path d="M 0 324 
L 446.4 324 
L 446.4 0 
L 0 0 
z
" style="fill: #ffffff"/>
  </g>
  <g id="axes_1">
   <g id="patch_2">
    <path d="M 45.842857 283.171429 
L 435.6 283.171429 
L 435.6 25.028571 
L 45.842857 25.028571 
z
" style="fill: #ffffff"/>
   </g>
   <g id="matplotlib.axis_1">
    <g id="xtick_1">
     <g id="line2d_1">
      <path d="M 99.426208 283.171429 
L 99.426208 25.028571 
" clip-path="url(#pa34013871a)" style="fill: none; stroke: #e5e5e5; stroke-width: 0.6; stroke-linecap: square"/>
     </g>
     <g id="line2d_2">
      <defs>
       <path id="m5c91263073" d="M 0 0 
L 0 3.5 
" style="stroke: #000000; stroke-width: 0.8"/>
      </defs>
      <g>
       <use xlink:href="#m5c91263073" x="99.426208" y="283.171429" style="stroke: #000000; stroke-width: 0.8"/>
      </g>
     </g>
     <g id="text_1">
      <!-- 0.1 -->
      <g transform="translate(92.269802 297.010022) scale(0.09 -0.09)">
       <defs>
        <path id="DejaVuSans-30" d="M 2034 4250 
Q 1547 4250 1301 3770 
Q 1056 3291 1056 2328 
Q 1056 1369 1301 889 
Q 1547 409 2034 409 
Q 2525 409 2770 889 
Q 3016 1369 3016 2328 
Q 3016 3291 2770 3770 
Q 2525 4250 2034 4250 
z
M 2034 4750 
Q 2819 4750 3233 4129 
Q 3647 3509 3647 2328 
Q 3647 1150 3233 529 
Q 2819 -91 2034 -91 
Q 1250 -91 836 529 
Q 422 1150 422 2328 
Q 422 3509 836 4129 
Q 1250 4750 2034 4750 
z
" transform="scale(0.015625)"/>
        <path id="DejaVuSans-2e" d="M 684 794 
L 1344 794 
L 1344 0 
L 684 0 
L 684 794 
z
" transform="scale(0.015625)"/>
        <path id="DejaVuSans-31" d="M 794 531 
L 1825 531 
L 1825 4091 
L 703 3866 
L 703 4441 
L 1819 4666 
L 2450 4666 
L 2450 531 
L 3481 531 
L 3481 0 
L 794 0 
L 794 531 
z
" transform="scale(0.015625)"/>
       </defs>
       <use xlink:href="#DejaVuSans-30"/>
       <use xlink:href="#DejaVuSans-2e" x="63.623047"/>
       <use xlink:href="#DejaVuSans-31" x="95.410156"/>
      </g>
     </g>
    </g>
    <g id="xtick_2">
     <g id="line2d_3">
      <path d="M 155.835226 283.171429 
L 155.835226 25.028571 
" clip-path="url(#pa34013871a)" style="fill: none; stroke: #e5e5e5; stroke-width: 0.6; stroke-linecap: square"/>
     </g>
     <g id="line2d_4">
      <g>
       <use xlink:href="#m5c91263073" x="155.835226" y="283.171429" style="stroke: #000000; stroke-width: 0.8"/>
      </g>
     </g>
     <g id="text_2">
      <!-- 0.2 -->
      <g transform="translate(148.67882 297.010022) scale(0.09 -0.09)">
       <defs>
        <path id="DejaVuSans-32" d="M 1228 531 
L 3431 531 
L 3431 0 
L 469 0 
L 469 531 
Q 828 903 1448 1529 
Q 2069 2156 2228 2338 
Q 2531 2678 2651 2914 
Q 2772 3150 2772 3378 
Q 2772 3750 2511 3984 
Q 2250 4219 1831 4219 
Q 1534 4219 1204 4116 
Q 875 4013 500 3803 
L 500 4441 
Q 881 4594 1212 4672 
Q 1544 4750 1819 4750 
Q 2544 4750 2975 4387 
Q 3406 4025 3406 3419 
Q 3406 3131 3298 2873 
Q 3191 2616 2906 2266 
Q 2828 2175 2409 1742 
Q 1991 1309 1228 531 
z
" transform="scale(0.015625)"/>
       </defs>
       <use xlink:href="#DejaVuSans-30"/>
       <use xlink:href="#DejaVuSans-2e" x="63.623047"/>
       <use xlink:href="#DejaVuSans-32" x="95.410156"/>
      </g>
     </g>
    </g>
    <g id="xtick_3">
     <g id="line2d_5">
      <path d="M 212.244245 283.171429 
L 212.244245 25.028571 
" clip-path="url(#pa34013871a)" style="fill: none; stroke: #e5e5e5; stroke-width: 0.6; stroke-linecap: square"/>
     </g>
     <g id="line2d_6">
      <g>
       <use xlink:href="#m5c91263073" x="212.244245" y="283.171429" style="stroke: #000000; stroke-width: 0.8"/>
      </g>
     </g>
     <g id="text_3">
      <!-- 0.3 -->
      <g transform="translate(205.087839 297.010022) scale(0.09 -0.09)">
       <defs>
        <path id="DejaVuSans-33" d="M 2597 2516 
Q 3050 2419 3304 2112 
Q 3559 1806 3559 1356 
Q 3559 666 3084 287 
Q 2609 -91 1734 -91 
Q 1441 -91 1130 -33 
Q 819 25 488 141 
L 488 750 
Q 750 597 1062 519 
Q 1375 441 1716 441 
Q 2309 441 2620 675 
Q 2931 909 2931 1356 
Q 2931 1769 2642 2001 
Q 2353 2234 1838 2234 
L 1294 2234 
L 1294 2753 
L 1863 2753 
Q 2328 2753 2575 2939 
Q 2822 3125 2822 3475 
Q 2822 3834 2567 4026 
Q 2313 4219 1838 4219 
Q 1578 4219 1281 4162 
Q 984 4106 628 3988 
L 628 4550 
Q 988 4650 1302 4700 
Q 1616 4750 1894 4750 
Q 2613 4750 3031 4423 
Q 3450 4097 3450 3541 
Q 3450 3153 3228 2886 
Q 3006 2619 2597 2516 
z
" transform="scale(0.015625)"/>
       </defs>
       <use xlink:href="#DejaVuSans-30"/>
       <use xlink:href="#DejaVuSans-2e" x="63.623047"/>
       <use xlink:href="#DejaVuSans-33" x="95.410156"/>
      </g>
     </g>
    </g>
    <g id="xtick_4">
     <g id="line2d_7">
      <path d="M 268.653263 283.171429 
L 268.653263 25.028571 
" clip-path="url(#pa34013871a)" style="fill: none; stroke: #e5e5e5; stroke-width: 0.6; stroke-linecap: square"/>
     </g>
     <g id="line2d_8">
      <g>
       <use xlink:href="#m5c91263073" x="268.653263" y="283.171429" style="stroke: #000000; stroke-width: 0.8"/>
      </g>
     </g>
     <g id="text_4">
      <!-- 0.4 -->
      <g transform="translate(261.496857 297.010022) scale(0.09 -0.09)">
       <defs>
        <path id="DejaVuSans-34" d="M 2419 4116 
L 825 1625 
L 2419 1625 
L 2419 4116 
z
M 2253 4666 
L 3047 4666 
L 3047 1625 
L 3713 1625 
L 3713 1100 
L 3047 1100 
L 3047 0 
L 2419 0 
L 2419 1100 
L 313 1100 
L 313 1709 
L 2253 4666 
z
" transform="scale(0.015625)"/>
       </defs>
       <use xlink:href="#DejaVuSans-30"/>
       <use xlink:href="#DejaVuSans-2e" x="63.623047"/>
       <use xlink:href="#DejaVuSans-34" x="95.410156"/>
      </g>
     </g>
    </g>
    <g id="xtick_5">
     <g id="line2d_9">
      <path d="M 325.062282 283.171429 
L 325.062282 25.028571 
" clip-path="url(#pa34013871a)" style="fill: none; stroke: #e5e5e5; stroke-width: 0.6; stroke-linecap: square"/>
     </g>
     <g id="line2d_10">
      <g>
       <use xlink:href="#m5c91263073" x="325.062282" y="283.171429" style="stroke: #000000; stroke-width: 0.8"/>
      </g>
     </g>
     <g id="text_5">
      <!-- 0.5 -->
      <g transform="translate(317.905876 297.010022) scale(0.09 -0.09)">
       <defs>
        <path id="DejaVuSans-35" d="M 691 4666 
L 3169 4666 
L 3169 4134 
L 1269 4134 
L 1269 2991 
Q 1406 3038 1543 3061 
Q 1681 3084 1819 3084 
Q 2600 3084 3056 2656 
Q 3513 2228 3513 1497 
Q 3513 744 3044 326 
Q 2575 -91 1722 -91 
Q 1428 -91 1123 -41 
Q 819 9 494 109 
L 494 744 
Q 775 591 1075 516 
Q 1375 441 1709 441 
Q 2250 441 2565 725 
Q 2881 1009 2881 1497 
Q 2881 1984 2565 2268 
Q 2250 2553 1709 2553 
Q 1456 2553 1204 2497 
Q 953 2441 691 2322 
L 691 4666 
z
" transform="scale(0.015625)"/>
       </defs>
       <use xlink:href="#DejaVuSans-30"/>
       <use xlink:href="#DejaVuSans-2e" x="63.623047"/>
       <use xlink:href="#DejaVuSans-35" x="95.410156"/>
      </g>
     </g>
    </g>
    <g id="xtick_6">
     <g id="line2d_11">
      <path d="M 381.4713 283.171429 
L 381.4713 25.028571 
" clip-path="url(#pa34013871a)" style="fill: none; stroke: #e5e5e5; stroke-width: 0.6; stroke-linecap: square"/>
     </g>
     <g id="line2d_12">
      <g>
       <use xlink:href="#m5c91263073" x="381.4713" y="283.171429" style="stroke: #000000; stroke-width: 0.8"/>
      </g>
     </g>
     <g id="text_6">
      <!-- 0.6 -->
      <g transform="translate(374.314894 297.010022) scale(0.09 -0.09)">
       <defs>
        <path id="DejaVuSans-36" d="M 2113 2584 
Q 1688 2584 1439 2293 
Q 1191 2003 1191 1497 
Q 1191 994 1439 701 
Q 1688 409 2113 409 
Q 2538 409 2786 701 
Q 3034 994 3034 1497 
Q 3034 2003 2786 2293 
Q 2538 2584 2113 2584 
z
M 3366 4563 
L 3366 3988 
Q 3128 4100 2886 4159 
Q 2644 4219 2406 4219 
Q 1781 4219 1451 3797 
Q 1122 3375 1075 2522 
Q 1259 2794 1537 2939 
Q 1816 3084 2150 3084 
Q 2853 3084 3261 2657 
Q 3669 2231 3669 1497 
Q 3669 778 3244 343 
Q 2819 -91 2113 -91 
Q 1303 -91 875 529 
Q 447 1150 447 2328 
Q 447 3434 972 4092 
Q 1497 4750 2381 4750 
Q 2619 4750 2861 4703 
Q 3103 4656 3366 4563 
z
" transform="scale(0.015625)"/>
       </defs>
       <use xlink:href="#DejaVuSans-30"/>
       <use xlink:href="#DejaVuSans-2e" x="63.623047"/>
       <use xlink:href="#DejaVuSans-36" x="95.410156"/>
      </g>
     </g>
    </g>
    <g id="text_7">
     <!-- Position error [m] -->
     <g transform="translate(197.205022 310.480179) scale(0.1 -0.1)">
      <defs>
       <path id="DejaVuSans-50" d="M 1259 4147 
L 1259 2394 
L 2053 2394 
Q 2494 2394 2734 2622 
Q 2975 2850 2975 3272 
Q 2975 3691 2734 3919 
Q 2494 4147 2053 4147 
L 1259 4147 
z
M 628 4666 
L 2053 4666 
Q 2838 4666 3239 4311 
Q 3641 3956 3641 3272 
Q 3641 2581 3239 2228 
Q 2838 1875 2053 1875 
L 1259 1875 
L 1259 0 
L 628 0 
L 628 4666 
z
" transform="scale(0.015625)"/>
       <path id="DejaVuSans-6f" d="M 1959 3097 
Q 1497 3097 1228 2736 
Q 959 2375 959 1747 
Q 959 1119 1226 758 
Q 1494 397 1959 397 
Q 2419 397 2687 759 
Q 2956 1122 2956 1747 
Q 2956 2369 2687 2733 
Q 2419 3097 1959 3097 
z
M 1959 3584 
Q 2709 3584 3137 3096 
Q 3566 2609 3566 1747 
Q 3566 888 3137 398 
Q 2709 -91 1959 -91 
Q 1206 -91 779 398 
Q 353 888 353 1747 
Q 353 2609 779 3096 
Q 1206 3584 1959 3584 
z
" transform="scale(0.015625)"/>
       <path id="DejaVuSans-73" d="M 2834 3397 
L 2834 2853 
Q 2591 2978 2328 3040 
Q 2066 3103 1784 3103 
Q 1356 3103 1142 2972 
Q 928 2841 928 2578 
Q 928 2378 1081 2264 
Q 1234 2150 1697 2047 
L 1894 2003 
Q 2506 1872 2764 1633 
Q 3022 1394 3022 966 
Q 3022 478 2636 193 
Q 2250 -91 1575 -91 
Q 1294 -91 989 -36 
Q 684 19 347 128 
L 347 722 
Q 666 556 975 473 
Q 1284 391 1588 391 
Q 1994 391 2212 530 
Q 2431 669 2431 922 
Q 2431 1156 2273 1281 
Q 2116 1406 1581 1522 
L 1381 1569 
Q 847 1681 609 1914 
Q 372 2147 372 2553 
Q 372 3047 722 3315 
Q 1072 3584 1716 3584 
Q 2034 3584 2315 3537 
Q 2597 3491 2834 3397 
z
" transform="scale(0.015625)"/>
       <path id="DejaVuSans-69" d="M 603 3500 
L 1178 3500 
L 1178 0 
L 603 0 
L 603 3500 
z
M 603 4863 
L 1178 4863 
L 1178 4134 
L 603 4134 
L 603 4863 
z
" transform="scale(0.015625)"/>
       <path id="DejaVuSans-74" d="M 1172 4494 
L 1172 3500 
L 2356 3500 
L 2356 3053 
L 1172 3053 
L 1172 1153 
Q 1172 725 1289 603 
Q 1406 481 1766 481 
L 2356 481 
L 2356 0 
L 1766 0 
Q 1100 0 847 248 
Q 594 497 594 1153 
L 594 3053 
L 172 3053 
L 172 3500 
L 594 3500 
L 594 4494 
L 1172 4494 
z
" transform="scale(0.015625)"/>
       <path id="DejaVuSans-6e" d="M 3513 2113 
L 3513 0 
L 2938 0 
L 2938 2094 
Q 2938 2591 2744 2837 
Q 2550 3084 2163 3084 
Q 1697 3084 1428 2787 
Q 1159 2491 1159 1978 
L 1159 0 
L 581 0 
L 581 3500 
L 1159 3500 
L 1159 2956 
Q 1366 3272 1645 3428 
Q 1925 3584 2291 3584 
Q 2894 3584 3203 3211 
Q 3513 2838 3513 2113 
z
" transform="scale(0.015625)"/>
       <path id="DejaVuSans-20" transform="scale(0.015625)"/>
       <path id="DejaVuSans-65" d="M 3597 1894 
L 3597 1613 
L 953 1613 
Q 991 1019 1311 708 
Q 1631 397 2203 397 
Q 2534 397 2845 478 
Q 3156 559 3463 722 
L 3463 178 
Q 3153 47 2828 -22 
Q 2503 -91 2169 -91 
Q 1331 -91 842 396 
Q 353 884 353 1716 
Q 353 2575 817 3079 
Q 1281 3584 2069 3584 
Q 2775 3584 3186 3129 
Q 3597 2675 3597 1894 
z
M 3022 2063 
Q 3016 2534 2758 2815 
Q 2500 3097 2075 3097 
Q 1594 3097 1305 2825 
Q 1016 2553 972 2059 
L 3022 2063 
z
" transform="scale(0.015625)"/>
       <path id="DejaVuSans-72" d="M 2631 2963 
Q 2534 3019 2420 3045 
Q 2306 3072 2169 3072 
Q 1681 3072 1420 2755 
Q 1159 2438 1159 1844 
L 1159 0 
L 581 0 
L 581 3500 
L 1159 3500 
L 1159 2956 
Q 1341 3275 1631 3429 
Q 1922 3584 2338 3584 
Q 2397 3584 2469 3576 
Q 2541 3569 2628 3553 
L 2631 2963 
z
" transform="scale(0.015625)"/>
       <path id="DejaVuSans-5b" d="M 550 4863 
L 1875 4863 
L 1875 4416 
L 1125 4416 
L 1125 -397 
L 1875 -397 
L 1875 -844 
L 550 -844 
L 550 4863 
z
" transform="scale(0.015625)"/>
       <path id="DejaVuSans-6d" d="M 3328 2828 
Q 3544 3216 3844 3400 
Q 4144 3584 4550 3584 
Q 5097 3584 5394 3201 
Q 5691 2819 5691 2113 
L 5691 0 
L 5113 0 
L 5113 2094 
Q 5113 2597 4934 2840 
Q 4756 3084 4391 3084 
Q 3944 3084 3684 2787 
Q 3425 2491 3425 1978 
L 3425 0 
L 2847 0 
L 2847 2094 
Q 2847 2600 2669 2842 
Q 2491 3084 2119 3084 
Q 1678 3084 1418 2786 
Q 1159 2488 1159 1978 
L 1159 0 
L 581 0 
L 581 3500 
L 1159 3500 
L 1159 2956 
Q 1356 3278 1631 3431 
Q 1906 3584 2284 3584 
Q 2666 3584 2933 3390 
Q 3200 3197 3328 2828 
z
" transform="scale(0.015625)"/>
       <path id="DejaVuSans-5d" d="M 1947 4863 
L 1947 -844 
L 622 -844 
L 622 -397 
L 1369 -397 
L 1369 4416 
L 622 4416 
L 622 4863 
L 1947 4863 
z
" transform="scale(0.015625)"/>
      </defs>
      <use xlink:href="#DejaVuSans-50"/>
      <use xlink:href="#DejaVuSans-6f" x="56.677734"/>
      <use xlink:href="#DejaVuSans-73" x="117.859375"/>
      <use xlink:href="#DejaVuSans-69" x="169.958984"/>
      <use xlink:href="#DejaVuSans-74" x="197.742188"/>
      <use xlink:href="#DejaVuSans-69" x="236.951172"/>
      <use xlink:href="#DejaVuSans-6f" x="264.734375"/>
      <use xlink:href="#DejaVuSans-6e" x="325.916016"/>
      <use xlink:href="#DejaVuSans-20" x="389.294922"/>
      <use xlink:href="#DejaVuSans-65" x="421.082031"/>
      <use xlink:href="#DejaVuSans-72" x="482.605469"/>
      <use xlink:href="#DejaVuSans-72" x="521.96875"/>
      <use xlink:href="#DejaVuSans-6f" x="560.832031"/>
      <use xlink:href="#DejaVuSans-72" x="622.013672"/>
      <use xlink:href="#DejaVuSans-20" x="663.126953"/>
      <use xlink:href="#DejaVuSans-5b" x="694.914062"/>
      <use xlink:href="#DejaVuSans-6d" x="733.927734"/>
      <use xlink:href="#DejaVuSans-5d" x="831.339844"/>
     </g>
    </g>
   </g>
   <g id="matplotlib.axis_2">
    <g id="ytick_1">
     <g id="line2d_13">
      <path d="M 45.842857 271.476781 
L 435.6 271.476781 
" clip-path="url(#pa34013871a)" style="fill: none; stroke: #e5e5e5; stroke-width: 0.6; stroke-linecap: square"/>
     </g>
     <g id="line2d_14">
      <defs>
       <path id="mdd10f6fe1c" d="M 0 0 
L -3.5 0 
" style="stroke: #000000; stroke-width: 0.8"/>
      </defs>
      <g>
       <use xlink:href="#mdd10f6fe1c" x="45.842857" y="271.476781" style="stroke: #000000; stroke-width: 0.8"/>
      </g>
     </g>
     <g id="text_8">
      <!-- 0.0 -->
      <g transform="translate(24.530045 274.896078) scale(0.09 -0.09)">
       <use xlink:href="#DejaVuSans-30"/>
       <use xlink:href="#DejaVuSans-2e" x="63.623047"/>
       <use xlink:href="#DejaVuSans-30" x="95.410156"/>
      </g>
     </g>
    </g>
    <g id="ytick_2">
     <g id="line2d_15">
      <path d="M 45.842857 224.533893 
L 435.6 224.533893 
" clip-path="url(#pa34013871a)" style="fill: none; stroke: #e5e5e5; stroke-width: 0.6; stroke-linecap: square"/>
     </g>
     <g id="line2d_16">
      <g>
       <use xlink:href="#mdd10f6fe1c" x="45.842857" y="224.533893" style="stroke: #000000; stroke-width: 0.8"/>
      </g>
     </g>
     <g id="text_9">
      <!-- 0.2 -->
      <g transform="translate(24.530045 227.95319) scale(0.09 -0.09)">
       <use xlink:href="#DejaVuSans-30"/>
       <use xlink:href="#DejaVuSans-2e" x="63.623047"/>
       <use xlink:href="#DejaVuSans-32" x="95.410156"/>
      </g>
     </g>
    </g>
    <g id="ytick_3">
     <g id="line2d_17">
      <path d="M 45.842857 177.591004 
L 435.6 177.591004 
" clip-path="url(#pa34013871a)" style="fill: none; stroke: #e5e5e5; stroke-width: 0.6; stroke-linecap: square"/>
     </g>
     <g id="line2d_18">
      <g>
       <use xlink:href="#mdd10f6fe1c" x="45.842857" y="177.591004" style="stroke: #000000; stroke-width: 0.8"/>
      </g>
     </g>
     <g id="text_10">
      <!-- 0.4 -->
      <g transform="translate(24.530045 181.010301) scale(0.09 -0.09)">
       <use xlink:href="#DejaVuSans-30"/>
       <use xlink:href="#DejaVuSans-2e" x="63.623047"/>
       <use xlink:href="#DejaVuSans-34" x="95.410156"/>
      </g>
     </g>
    </g>
    <g id="ytick_4">
     <g id="line2d_19">
      <path d="M 45.842857 130.648115 
L 435.6 130.648115 
" clip-path="url(#pa34013871a)" style="fill: none; stroke: #e5e5e5; stroke-width: 0.6; stroke-linecap: square"/>
     </g>
     <g id="line2d_20">
      <g>
       <use xlink:href="#mdd10f6fe1c" x="45.842857" y="130.648115" style="stroke: #000000; stroke-width: 0.8"/>
      </g>
     </g>
     <g id="text_11">
      <!-- 0.6 -->
      <g transform="translate(24.530045 134.067412) scale(0.09 -0.09)">
       <use xlink:href="#DejaVuSans-30"/>
       <use xlink:href="#DejaVuSans-2e" x="63.623047"/>
       <use xlink:href="#DejaVuSans-36" x="95.410156"/>
      </g>
     </g>
    </g>
    <g id="ytick_5">
     <g id="line2d_21">
      <path d="M 45.842857 83.705226 
L 435.6 83.705226 
" clip-path="url(#pa34013871a)" style="fill: none; stroke: #e5e5e5; stroke-width: 0.6; stroke-linecap: square"/>
     </g>
     <g id="line2d_22">
      <g>
       <use xlink:href="#mdd10f6fe1c" x="45.842857" y="83.705226" style="stroke: #000000; stroke-width: 0.8"/>
      </g>
     </g>
     <g id="text_12">
      <!-- 0.8 -->
      <g transform="translate(24.530045 87.124523) scale(0.09 -0.09)">
       <defs>
        <path id="DejaVuSans-38" d="M 2034 2216 
Q 1584 2216 1326 1975 
Q 1069 1734 1069 1313 
Q 1069 891 1326 650 
Q 1584 409 2034 409 
Q 2484 409 2743 651 
Q 3003 894 3003 1313 
Q 3003 1734 2745 1975 
Q 2488 2216 2034 2216 
z
M 1403 2484 
Q 997 2584 770 2862 
Q 544 3141 544 3541 
Q 544 4100 942 4425 
Q 1341 4750 2034 4750 
Q 2731 4750 3128 4425 
Q 3525 4100 3525 3541 
Q 3525 3141 3298 2862 
Q 3072 2584 2669 2484 
Q 3125 2378 3379 2068 
Q 3634 1759 3634 1313 
Q 3634 634 3220 271 
Q 2806 -91 2034 -91 
Q 1263 -91 848 271 
Q 434 634 434 1313 
Q 434 1759 690 2068 
Q 947 2378 1403 2484 
z
M 1172 3481 
Q 1172 3119 1398 2916 
Q 1625 2713 2034 2713 
Q 2441 2713 2670 2916 
Q 2900 3119 2900 3481 
Q 2900 3844 2670 4047 
Q 2441 4250 2034 4250 
Q 1625 4250 1398 4047 
Q 1172 3844 1172 3481 
z
" transform="scale(0.015625)"/>
       </defs>
       <use xlink:href="#DejaVuSans-30"/>
       <use xlink:href="#DejaVuSans-2e" x="63.623047"/>
       <use xlink:href="#DejaVuSans-38" x="95.410156"/>
      </g>
     </g>
    </g>
    <g id="ytick_6">
     <g id="line2d_23">
      <path d="M 45.842857 36.762338 
L 435.6 36.762338 
" clip-path="url(#pa34013871a)" style="fill: none; stroke: #e5e5e5; stroke-width: 0.6; stroke-linecap: square"/>
     </g>
     <g id="line2d_24">
      <g>
       <use xlink:href="#mdd10f6fe1c" x="45.842857" y="36.762338" style="stroke: #000000; stroke-width: 0.8"/>
      </g>
     </g>
     <g id="text_13">
      <!-- 1.0 -->
      <g transform="translate(24.530045 40.181635) scale(0.09 -0.09)">
       <use xlink:href="#DejaVuSans-31"/>
       <use xlink:href="#DejaVuSans-2e" x="63.623047"/>
       <use xlink:href="#DejaVuSans-30" x="95.410156"/>
      </g>
     </g>
    </g>
    <g id="text_14">
     <!-- empirical CDF -->
     <g transform="translate(18.450357 189.063281) rotate(-90) scale(0.1 -0.1)">
      <defs>
       <path id="DejaVuSans-70" d="M 1159 525 
L 1159 -1331 
L 581 -1331 
L 581 3500 
L 1159 3500 
L 1159 2969 
Q 1341 3281 1617 3432 
Q 1894 3584 2278 3584 
Q 2916 3584 3314 3078 
Q 3713 2572 3713 1747 
Q 3713 922 3314 415 
Q 2916 -91 2278 -91 
Q 1894 -91 1617 61 
Q 1341 213 1159 525 
z
M 3116 1747 
Q 3116 2381 2855 2742 
Q 2594 3103 2138 3103 
Q 1681 3103 1420 2742 
Q 1159 2381 1159 1747 
Q 1159 1113 1420 752 
Q 1681 391 2138 391 
Q 2594 391 2855 752 
Q 3116 1113 3116 1747 
z
" transform="scale(0.015625)"/>
       <path id="DejaVuSans-63" d="M 3122 3366 
L 3122 2828 
Q 2878 2963 2633 3030 
Q 2388 3097 2138 3097 
Q 1578 3097 1268 2742 
Q 959 2388 959 1747 
Q 959 1106 1268 751 
Q 1578 397 2138 397 
Q 2388 397 2633 464 
Q 2878 531 3122 666 
L 3122 134 
Q 2881 22 2623 -34 
Q 2366 -91 2075 -91 
Q 1284 -91 818 406 
Q 353 903 353 1747 
Q 353 2603 823 3093 
Q 1294 3584 2113 3584 
Q 2378 3584 2631 3529 
Q 2884 3475 3122 3366 
z
" transform="scale(0.015625)"/>
       <path id="DejaVuSans-61" d="M 2194 1759 
Q 1497 1759 1228 1600 
Q 959 1441 959 1056 
Q 959 750 1161 570 
Q 1363 391 1709 391 
Q 2188 391 2477 730 
Q 2766 1069 2766 1631 
L 2766 1759 
L 2194 1759 
z
M 3341 1997 
L 3341 0 
L 2766 0 
L 2766 531 
Q 2569 213 2275 61 
Q 1981 -91 1556 -91 
Q 1019 -91 701 211 
Q 384 513 384 1019 
Q 384 1609 779 1909 
Q 1175 2209 1959 2209 
L 2766 2209 
L 2766 2266 
Q 2766 2663 2505 2880 
Q 2244 3097 1772 3097 
Q 1472 3097 1187 3025 
Q 903 2953 641 2809 
L 641 3341 
Q 956 3463 1253 3523 
Q 1550 3584 1831 3584 
Q 2591 3584 2966 3190 
Q 3341 2797 3341 1997 
z
" transform="scale(0.015625)"/>
       <path id="DejaVuSans-6c" d="M 603 4863 
L 1178 4863 
L 1178 0 
L 603 0 
L 603 4863 
z
" transform="scale(0.015625)"/>
       <path id="DejaVuSans-43" d="M 4122 4306 
L 4122 3641 
Q 3803 3938 3442 4084 
Q 3081 4231 2675 4231 
Q 1875 4231 1450 3742 
Q 1025 3253 1025 2328 
Q 1025 1406 1450 917 
Q 1875 428 2675 428 
Q 3081 428 3442 575 
Q 3803 722 4122 1019 
L 4122 359 
Q 3791 134 3420 21 
Q 3050 -91 2638 -91 
Q 1578 -91 968 557 
Q 359 1206 359 2328 
Q 359 3453 968 4101 
Q 1578 4750 2638 4750 
Q 3056 4750 3426 4639 
Q 3797 4528 4122 4306 
z
" transform="scale(0.015625)"/>
       <path id="DejaVuSans-44" d="M 1259 4147 
L 1259 519 
L 2022 519 
Q 2988 519 3436 956 
Q 3884 1394 3884 2338 
Q 3884 3275 3436 3711 
Q 2988 4147 2022 4147 
L 1259 4147 
z
M 628 4666 
L 1925 4666 
Q 3281 4666 3915 4102 
Q 4550 3538 4550 2338 
Q 4550 1131 3912 565 
Q 3275 0 1925 0 
L 628 0 
L 628 4666 
z
" transform="scale(0.015625)"/>
       <path id="DejaVuSans-46" d="M 628 4666 
L 3309 4666 
L 3309 4134 
L 1259 4134 
L 1259 2759 
L 3109 2759 
L 3109 2228 
L 1259 2228 
L 1259 0 
L 628 0 
L 628 4666 
z
" transform="scale(0.015625)"/>
      </defs>
      <use xlink:href="#DejaVuSans-65"/>
      <use xlink:href="#DejaVuSans-6d" x="61.523438"/>
      <use xlink:href="#DejaVuSans-70" x="158.935547"/>
      <use xlink:href="#DejaVuSans-69" x="222.412109"/>
      <use xlink:href="#DejaVuSans-72" x="250.195312"/>
      <use xlink:href="#DejaVuSans-69" x="291.308594"/>
      <use xlink:href="#DejaVuSans-63" x="319.091797"/>
      <use xlink:href="#DejaVuSans-61" x="374.072266"/>
      <use xlink:href="#DejaVuSans-6c" x="435.351562"/>
      <use xlink:href="#DejaVuSans-20" x="463.134766"/>
      <use xlink:href="#DejaVuSans-43" x="494.921875"/>
      <use xlink:href="#DejaVuSans-44" x="564.746094"/>
      <use xlink:href="#DejaVuSans-46" x="641.748047"/>
     </g>
    </g>
   </g>
   <g id="line2d_25">
    <path d="M 63.559091 271.437662 
L 65.881065 271.281186 
L 67.240515 271.202948 
L 74.108467 271.046472 
L 75.595302 270.968233 
L 83.492151 270.811757 
L 84.575314 270.733519 
L 97.632091 270.459685 
L 105.039576 270.107614 
L 105.053418 270.068495 
L 106.358875 269.912018 
L 110.140034 269.44259 
L 110.490196 269.364351 
L 113.799535 269.207875 
L 115.738925 268.855803 
L 115.934645 268.699327 
L 116.424731 268.464613 
L 116.752397 268.269017 
L 118.338097 267.916946 
L 118.350648 267.838708 
L 118.857554 267.643112 
L 119.031551 267.564874 
L 121.820469 266.821612 
L 123.115056 266.078349 
L 128.099653 264.983015 
L 128.496525 264.826539 
L 129.983819 264.435348 
L 135.607542 264.122396 
L 137.809031 263.300895 
L 138.015603 263.027061 
L 138.508634 262.792347 
L 139.227202 262.24468 
L 139.737326 261.931727 
L 140.454745 261.305822 
L 141.152722 261.188465 
L 141.197595 261.110227 
L 141.888642 260.914631 
L 141.996592 260.836393 
L 142.148294 260.679917 
L 142.631533 260.406083 
L 142.838497 260.249607 
L 143.172422 259.897536 
L 143.409583 259.70194 
L 143.530631 259.506345 
L 144.708534 258.763082 
L 144.866439 258.567487 
L 145.011733 258.371892 
L 145.065768 258.254534 
L 145.531757 257.941582 
L 145.876151 257.58951 
L 146.6798 257.276558 
L 146.754405 257.080962 
L 146.925738 256.611533 
L 147.387939 256.259462 
L 147.712532 255.750914 
L 147.831335 255.555318 
L 148.194509 255.242366 
L 148.434117 255.085889 
L 149.658876 254.968532 
L 149.751199 254.890294 
L 150.477572 254.733818 
L 150.725756 254.459984 
L 150.945059 254.342627 
L 151.189756 254.147032 
L 151.464542 253.716722 
L 152.103108 253.599365 
L 152.2719 253.169055 
L 152.336475 253.129936 
L 153.355184 253.012579 
L 153.388694 252.93434 
L 153.87289 252.816983 
L 154.001963 252.699626 
L 154.216739 252.504031 
L 154.333789 252.11284 
L 154.643254 251.760768 
L 155.499448 251.526054 
L 156.001179 250.978387 
L 156.105359 250.704553 
L 156.207704 250.626315 
L 156.625051 250.391601 
L 156.697391 250.274243 
L 157.138328 250.039529 
L 157.293732 249.804814 
L 157.605159 249.452743 
L 157.832949 249.100671 
L 158.309121 248.944195 
L 158.314333 248.905076 
L 158.592604 248.748599 
L 158.619558 248.70948 
L 159.336858 248.592123 
L 159.392628 248.513885 
L 159.946607 248.357409 
L 159.952591 248.31829 
L 160.374887 248.161813 
L 161.43599 246.949122 
L 161.679787 246.792646 
L 161.99682 246.284098 
L 162.14465 246.127621 
L 162.243454 245.853788 
L 162.603246 245.267002 
L 162.780537 245.071406 
L 162.845895 244.758454 
L 163.165494 244.523739 
L 163.28565 244.445501 
L 163.585691 244.289025 
L 163.686473 244.054311 
L 164.24063 243.702239 
L 164.504129 243.389286 
L 164.70551 243.154572 
L 165.187653 242.333071 
L 165.684379 242.176595 
L 165.778306 241.941881 
L 165.887386 241.55069 
L 166.067038 241.276856 
L 166.596966 241.081261 
L 166.725746 241.003023 
L 167.163871 240.650951 
L 167.390704 240.494475 
L 167.620749 240.142403 
L 167.996004 239.907689 
L 168.725696 239.751212 
L 168.812862 239.672974 
L 169.01643 239.516498 
L 169.258295 239.281784 
L 170.048298 238.303807 
L 170.197074 237.873497 
L 170.450834 237.638782 
L 170.632979 237.32583 
L 171.178998 237.169354 
L 171.303359 236.778163 
L 171.675419 235.721948 
L 172.206475 235.096043 
L 172.29009 234.900447 
L 172.513027 234.743971 
L 172.605213 234.587495 
L 172.947541 234.196304 
L 173.197399 233.805113 
L 173.590772 233.570399 
L 173.722285 233.296565 
L 174.291508 232.318588 
L 174.406245 231.849159 
L 175.062794 230.675587 
L 175.188974 230.440873 
L 175.322717 229.971444 
L 175.490337 229.384658 
L 175.570004 229.267301 
L 175.732173 229.032586 
L 175.91471 228.563157 
L 176.678559 227.506942 
L 176.826354 226.998394 
L 176.969666 226.802799 
L 177.163887 226.646323 
L 177.952657 225.394512 
L 178.182295 225.198917 
L 178.362667 224.612131 
L 178.637188 224.064464 
L 178.927448 223.39944 
L 179.101585 223.242963 
L 179.185306 223.086487 
L 179.73786 222.930011 
L 179.852436 222.695296 
L 180.114232 221.952034 
L 180.276065 221.717319 
L 180.712926 220.8567 
L 180.854506 220.543747 
L 181.390903 219.917842 
L 181.724252 219.018103 
L 181.950424 218.392198 
L 182.091424 218.079245 
L 182.154724 217.88365 
L 182.409477 217.570697 
L 182.706144 217.375102 
L 182.782702 217.06215 
L 182.880722 216.944792 
L 183.503884 215.888577 
L 183.632708 215.614744 
L 183.965813 214.754124 
L 184.040692 214.480291 
L 184.13913 214.206457 
L 184.393264 213.737028 
L 184.593627 212.915528 
L 184.716282 212.680813 
L 185.548197 210.568383 
L 186.084633 209.86424 
L 186.381993 209.199216 
L 187.230041 207.634453 
L 187.318616 207.438857 
L 187.638293 207.008548 
L 187.768684 206.89119 
L 187.894009 206.343523 
L 188.330874 204.739641 
L 188.524122 204.465808 
L 188.628716 204.231093 
L 188.710226 203.95726 
L 188.937117 203.52695 
L 189.123781 203.370474 
L 189.48087 202.783688 
L 189.710843 202.314259 
L 189.847568 202.118663 
L 190.131485 201.84483 
L 190.232545 201.218925 
L 190.421596 201.023329 
L 190.533328 200.749496 
L 190.631121 200.514781 
L 190.800023 199.927995 
L 191.924298 197.541732 
L 192.041061 197.072303 
L 192.487658 195.664016 
L 193.214058 193.512467 
L 193.285802 193.434229 
L 193.653355 192.9648 
L 193.887251 192.221538 
L 194.250002 191.321799 
L 194.464699 191.087084 
L 194.661369 190.813251 
L 194.923484 190.578536 
L 195.054826 190.304703 
L 195.211625 189.952631 
L 195.373275 189.639679 
L 195.772567 188.661702 
L 195.831042 188.426987 
L 196.116059 188.153154 
L 196.482407 187.449011 
L 196.574376 187.292534 
L 196.689076 186.862224 
L 196.802166 186.510153 
L 196.956995 185.884248 
L 197.315201 185.101866 
L 197.46976 184.906271 
L 198.228264 183.928294 
L 198.238183 183.889175 
L 198.429166 183.732699 
L 198.544089 183.537103 
L 199.239572 182.480888 
L 199.471522 182.089697 
L 199.586468 181.854983 
L 199.724169 181.346435 
L 199.96737 180.994363 
L 201.398416 178.490743 
L 201.522917 178.060433 
L 201.640366 177.903957 
L 201.773044 177.473647 
L 202.402237 175.987122 
L 202.520483 175.752407 
L 202.709574 175.400336 
L 203.125783 174.696192 
L 203.302919 174.461478 
L 203.49344 174.187644 
L 203.747729 173.639977 
L 203.975548 173.248787 
L 204.131171 173.053191 
L 204.340565 172.896715 
L 204.568949 172.70112 
L 204.960596 172.153453 
L 205.036779 171.918738 
L 205.15501 171.723143 
L 205.306375 171.449309 
L 205.493297 171.175476 
L 205.773835 170.784285 
L 205.968196 170.627809 
L 206.176871 170.432213 
L 206.644055 169.72807 
L 206.753964 169.454237 
L 207.132245 169.023927 
L 207.217547 168.945689 
L 207.48923 168.671855 
L 207.625582 168.515379 
L 208.115888 168.006831 
L 208.265457 167.811235 
L 210.014749 165.112019 
L 210.328564 164.877305 
L 210.523779 164.64259 
L 210.815563 164.2514 
L 211.242646 163.312542 
L 211.357934 162.999589 
L 211.412777 162.843113 
L 211.540812 162.491041 
L 211.621763 162.334565 
L 211.720399 162.13897 
L 212.292843 161.317469 
L 212.434526 161.160993 
L 213.081711 160.222135 
L 213.349052 159.830944 
L 213.471214 159.59623 
L 214.40534 158.031467 
L 214.512938 157.835872 
L 214.817467 157.405562 
L 215.074715 156.975252 
L 215.194296 156.779657 
L 215.426076 156.349347 
L 215.540343 156.036394 
L 215.968268 155.136655 
L 216.147405 154.94106 
L 217.019452 153.767488 
L 217.343808 153.415416 
L 218.591914 152.593916 
L 218.983791 152.280963 
L 219.171094 152.046249 
L 219.306029 151.889772 
L 220.182277 150.755319 
L 220.442071 150.598843 
L 220.556005 150.520605 
L 221.312084 150.090295 
L 221.676006 149.85558 
L 222.590276 148.369056 
L 222.837652 148.134341 
L 222.95051 147.977865 
L 223.379449 147.547555 
L 223.485254 147.469317 
L 224.303284 146.999888 
L 224.475517 146.882531 
L 225.490662 146.530459 
L 227.065496 146.373983 
L 227.409006 146.139268 
L 227.419381 146.100149 
L 227.648589 145.943673 
L 227.783743 145.787197 
L 227.921335 145.63072 
L 228.109639 145.435125 
L 228.759537 145.043934 
L 229.761782 144.613625 
L 229.950304 144.37891 
L 230.468312 143.831243 
L 231.335092 143.440052 
L 231.855572 143.205338 
L 231.957978 143.1271 
L 232.648104 142.735909 
L 232.890483 142.579433 
L 233.208803 142.422956 
L 233.327311 142.305599 
L 234.0817 141.992647 
L 235.487613 141.83617 
L 237.551109 141.01467 
L 237.741384 140.858193 
L 239.264017 139.645502 
L 240.522285 139.489026 
L 240.845282 139.215192 
L 242.029945 138.080739 
L 243.237522 137.689548 
L 243.626167 137.493953 
L 244.885389 136.907167 
L 245.034359 136.711572 
L 245.312138 136.515976 
L 245.435417 136.398619 
L 245.966164 136.163905 
L 245.967348 136.124786 
L 246.097987 135.968309 
L 246.434149 135.616238 
L 246.753577 135.459761 
L 247.288805 135.225047 
L 248.016086 134.755618 
L 248.924551 134.520903 
L 248.928114 134.481784 
L 249.491166 134.286189 
L 250.079739 133.934117 
L 250.934985 133.621165 
L 251.11527 133.542927 
L 251.686301 133.269093 
L 251.754839 133.190855 
L 252.227214 133.034379 
L 252.782732 132.643188 
L 253.464186 132.447593 
L 254.831012 132.291116 
L 255.11296 132.017283 
L 255.533019 131.586973 
L 256.482479 131.078425 
L 256.775183 130.765472 
L 256.999541 130.530758 
L 257.482637 130.296043 
L 257.485356 130.217805 
L 258.259615 129.983091 
L 259.298663 129.709257 
L 259.967736 129.552781 
L 260.163185 129.396305 
L 261.18796 129.044233 
L 261.56552 128.848638 
L 261.720882 128.731281 
L 262.355109 128.574804 
L 263.188882 127.792423 
L 263.338439 127.635946 
L 263.493993 127.440351 
L 263.870464 127.010041 
L 264.058686 126.814446 
L 264.292612 126.305898 
L 265.350553 125.406159 
L 265.53949 125.249683 
L 265.799869 124.858492 
L 267.236512 123.841396 
L 267.771384 123.528444 
L 267.870256 123.371967 
L 268.18343 122.941658 
L 268.901624 122.706943 
L 270.433149 121.963681 
L 271.466433 121.494252 
L 272.320821 120.516275 
L 272.528222 120.281561 
L 272.657815 120.085965 
L 272.859533 119.89037 
L 273.25515 119.420941 
L 273.496409 119.264465 
L 273.992198 118.59944 
L 275.287742 117.856178 
L 275.421808 117.660583 
L 275.772237 117.425868 
L 276.073638 116.995558 
L 276.375439 116.799963 
L 276.461055 116.565249 
L 276.729308 116.330534 
L 276.767947 116.291415 
L 277.078217 116.134939 
L 277.353521 115.743748 
L 277.493207 115.469914 
L 278.104377 114.765771 
L 278.189074 114.609295 
L 278.941765 114.061628 
L 279.109395 113.787794 
L 279.215609 113.670437 
L 279.351028 113.513961 
L 279.444953 113.396604 
L 279.714042 113.240127 
L 280.003592 112.848937 
L 280.996975 112.223031 
L 281.14549 111.988317 
L 282.216203 110.814745 
L 282.539767 110.540911 
L 283.109326 110.345316 
L 283.81182 109.445577 
L 283.995583 109.093505 
L 284.090146 108.937029 
L 284.217818 108.4676 
L 284.683861 107.998171 
L 284.80901 107.841695 
L 284.964803 107.6461 
L 285.222536 107.372266 
L 285.354051 107.176671 
L 285.405019 107.098433 
L 286.718956 106.746361 
L 286.792235 106.589885 
L 287.326603 106.120456 
L 287.464971 105.885741 
L 287.772526 105.729265 
L 288.14504 105.494551 
L 288.458623 105.181598 
L 289.026343 104.829526 
L 289.25427 104.67305 
L 289.406852 104.438336 
L 289.898887 103.773311 
L 290.294056 103.42124 
L 290.744712 102.795335 
L 291.427398 102.443263 
L 291.702078 102.091191 
L 292.663015 101.347929 
L 292.781829 100.995857 
L 293.097285 100.487309 
L 293.509174 100.330833 
L 294.405279 100.01788 
L 295.195367 98.76607 
L 295.395198 98.570475 
L 295.479994 98.374879 
L 295.61503 98.296641 
L 295.832509 98.101046 
L 296.106632 97.748974 
L 296.446355 97.436021 
L 296.566684 97.240426 
L 296.840326 96.65364 
L 296.972783 96.105973 
L 297.545371 95.206234 
L 297.741071 94.97152 
L 297.927707 94.893282 
L 298.447527 94.697686 
L 298.552274 94.423853 
L 299.134199 94.150019 
L 299.545052 93.915305 
L 299.974764 93.563233 
L 300.179123 93.406757 
L 300.295216 93.25028 
L 301.346278 92.85909 
L 301.481301 92.663494 
L 302.301628 92.311423 
L 302.449528 92.154946 
L 302.661948 91.959351 
L 302.857489 91.646398 
L 303.067362 91.489922 
L 303.192022 91.098731 
L 303.570117 90.942255 
L 304.561698 90.824898 
L 304.587154 90.74666 
L 305.109882 90.590183 
L 305.347361 90.042516 
L 305.51005 89.88604 
L 305.597387 89.807802 
L 305.939151 89.651326 
L 306.037152 89.494849 
L 306.188718 89.338373 
L 306.196723 89.260135 
L 306.759563 88.986301 
L 306.929457 88.673349 
L 307.32546 88.516873 
L 307.433103 88.282158 
L 307.660139 88.086563 
L 308.196694 87.77361 
L 308.59261 87.108586 
L 310.207059 86.169728 
L 310.216798 86.09149 
L 310.674269 85.895895 
L 310.8327 85.622061 
L 311.235041 85.348228 
L 311.930916 84.526727 
L 312.030484 84.370251 
L 312.454065 83.900822 
L 313.341956 83.079321 
L 313.679822 82.922845 
L 314.307285 82.375178 
L 314.311582 82.336059 
L 314.93005 82.140463 
L 315.063694 81.944868 
L 315.332906 81.749273 
L 315.401726 81.631915 
L 315.894161 81.43632 
L 316.183464 81.084248 
L 317.107235 79.871557 
L 317.223427 79.480366 
L 317.451528 79.363009 
L 318.025744 79.128295 
L 318.278689 78.932699 
L 318.965447 78.737104 
L 319.810543 78.189437 
L 320.051831 77.876484 
L 320.253854 77.64177 
L 320.824892 76.78115 
L 321.555432 76.350841 
L 321.697189 76.116126 
L 321.924018 75.803173 
L 322.011239 75.685816 
L 322.453337 75.451102 
L 322.682014 75.09903 
L 323.960574 74.786078 
L 324.119429 74.590482 
L 324.303134 74.355768 
L 324.410648 74.081934 
L 324.778243 73.768982 
L 324.871286 73.573386 
L 326.85692 72.008623 
L 327.008327 71.891266 
L 327.586063 71.421837 
L 328.33195 71.265361 
L 328.741226 70.952408 
L 329.640146 70.678575 
L 330.277653 70.287384 
L 330.299134 70.209146 
L 330.596214 70.013551 
L 330.873533 69.896193 
L 332.108284 69.309407 
L 332.432279 69.152931 
L 332.719637 68.879097 
L 333.016704 68.566145 
L 333.608844 68.33143 
L 333.747896 68.135835 
L 333.934437 67.94024 
L 334.033722 67.822882 
L 334.319473 67.666406 
L 335.021198 67.275215 
L 335.089888 67.118739 
L 335.456372 66.923144 
L 335.652369 66.727548 
L 336.06766 66.375477 
L 336.447522 66.219 
L 336.465285 66.179881 
L 336.874889 66.023405 
L 337.107836 65.906048 
L 337.641723 65.358381 
L 337.74716 65.162785 
L 337.876351 64.96719 
L 338.164204 64.810714 
L 338.177059 64.771595 
L 338.670992 64.575999 
L 339.085542 64.184809 
L 339.187183 64.10657 
L 340.242026 63.363308 
L 340.417945 63.089474 
L 341.015463 62.267974 
L 341.212897 61.955021 
L 341.438301 61.798545 
L 342.264582 61.642069 
L 342.423213 61.563831 
L 342.66222 61.368235 
L 342.814109 61.094402 
L 343.08284 60.703211 
L 343.307422 60.507616 
L 345.281017 59.764353 
L 345.992981 59.568758 
L 346.310936 59.334043 
L 347.192357 58.434305 
L 347.766469 58.19959 
L 347.901833 58.082233 
L 348.053973 57.847519 
L 348.320911 57.691042 
L 348.448505 57.612804 
L 349.029782 57.221613 
L 349.232235 57.104256 
L 349.986378 56.94778 
L 351.486207 56.791304 
L 352.62064 56.400113 
L 352.754194 56.243636 
L 353.222061 55.969803 
L 354.397265 55.578612 
L 354.797483 55.343898 
L 355.164326 55.148302 
L 356.068232 54.717993 
L 357.114256 54.365921 
L 357.250153 54.287683 
L 358.126608 53.740016 
L 358.647089 53.54442 
L 359.928879 52.840277 
L 360.36202 52.644682 
L 360.377447 52.566444 
L 360.895406 52.331729 
L 360.900099 52.29261 
L 361.712688 51.979657 
L 363.132426 51.119038 
L 363.173167 51.001681 
L 363.432894 50.806085 
L 363.612347 50.61049 
L 363.698334 50.493133 
L 363.868479 50.336656 
L 364.020379 50.258418 
L 364.816317 49.828108 
L 365.202472 49.632513 
L 365.456843 49.476037 
L 365.846688 49.006608 
L 366.073287 48.576298 
L 366.505876 48.028631 
L 366.818036 47.793917 
L 367.099191 47.63744 
L 367.337685 47.520083 
L 367.977888 47.363607 
L 368.524106 47.20713 
L 369.103128 46.855059 
L 369.561153 46.581225 
L 369.756297 46.424749 
L 370.21517 46.190034 
L 370.283012 46.111796 
L 372.561692 45.485891 
L 372.613308 45.407653 
L 373.1051 45.212058 
L 374.402689 44.468795 
L 375.230931 44.234081 
L 375.237761 44.194962 
L 376.026637 44.077604 
L 376.933574 43.882009 
L 379.045413 42.825794 
L 379.05951 42.786675 
L 380.125558 42.395484 
L 380.861642 41.965174 
L 381.550927 41.769579 
L 383.282702 41.143674 
L 383.978124 41.065436 
L 386.650041 40.90896 
L 388.346355 40.322173 
L 388.350363 40.283054 
L 389.012635 39.970102 
L 389.17421 39.813625 
L 391.502059 39.422435 
L 391.504492 39.383316 
L 392.341455 39.226839 
L 392.46807 39.148601 
L 393.397504 38.913887 
L 394.043192 38.79653 
L 396.386188 38.640053 
L 397.367556 38.36622 
L 404.477649 37.740315 
L 408.754431 37.622957 
L 409.375319 37.466481 
L 409.388743 37.427362 
L 410.505351 37.153528 
L 414.399316 36.997052 
L 417.883766 36.762338 
L 417.883766 36.762338 
" clip-path="url(#pa34013871a)" style="fill: none; stroke: #000000; stroke-width: 1.3; stroke-linecap: square"/>
   </g>
   <g id="line2d_26">
    <path d="M 63.559091 271.437662 
L 65.881065 271.281186 
L 67.240515 271.202948 
L 74.108467 271.046472 
L 75.595302 270.968233 
L 83.492151 270.811757 
L 84.575314 270.733519 
L 97.632091 270.459685 
L 105.039576 270.107614 
L 105.053418 270.068495 
L 106.358875 269.912018 
L 110.140034 269.44259 
L 110.490196 269.364351 
L 113.799535 269.207875 
L 115.738925 268.855803 
L 115.934645 268.699327 
L 116.424731 268.464613 
L 116.752397 268.269017 
L 118.338097 267.916946 
L 118.350648 267.838708 
L 118.857554 267.643112 
L 119.031551 267.564874 
L 121.820469 266.821612 
L 123.115056 266.078349 
L 128.099653 264.983015 
L 128.496525 264.826539 
L 129.983819 264.435348 
L 135.607542 264.122396 
L 137.809031 263.300895 
L 138.015603 263.027061 
L 138.508634 262.792347 
L 139.227202 262.24468 
L 139.737326 261.931727 
L 140.454745 261.305822 
L 141.152722 261.188465 
L 141.197595 261.110227 
L 141.888642 260.914631 
L 141.996592 260.836393 
L 142.148294 260.679917 
L 142.631533 260.406083 
L 142.838497 260.249607 
L 143.172422 259.897536 
L 143.409583 259.70194 
L 143.530631 259.506345 
L 144.708534 258.763082 
L 144.866439 258.567487 
L 145.011733 258.371892 
L 145.065768 258.254534 
L 145.531757 257.941582 
L 145.876151 257.58951 
L 146.6798 257.276558 
L 146.754405 257.080962 
L 146.925738 256.611533 
L 147.387939 256.259462 
L 147.712532 255.750914 
L 147.831335 255.555318 
L 148.194509 255.242366 
L 148.434117 255.085889 
L 149.658876 254.968532 
L 149.751199 254.890294 
L 150.477572 254.733818 
L 150.725756 254.459984 
L 150.945059 254.342627 
L 151.189756 254.147032 
L 151.464542 253.716722 
L 152.103108 253.599365 
L 152.2719 253.169055 
L 152.336475 253.129936 
L 153.355184 253.012579 
L 153.388694 252.93434 
L 153.87289 252.816983 
L 154.001963 252.699626 
L 154.216739 252.504031 
L 154.333789 252.11284 
L 154.643254 251.760768 
L 155.499448 251.526054 
L 156.001179 250.978387 
L 156.105359 250.704553 
L 156.207704 250.626315 
L 156.625051 250.391601 
L 156.697391 250.274243 
L 157.138328 250.039529 
L 157.293732 249.804814 
L 157.605159 249.452743 
L 157.832949 249.100671 
L 158.309121 248.944195 
L 158.314333 248.905076 
L 158.592604 248.748599 
L 158.619558 248.70948 
L 159.336858 248.592123 
L 159.392628 248.513885 
L 159.946607 248.357409 
L 159.952591 248.31829 
L 160.374887 248.161813 
L 161.43599 246.949122 
L 161.679787 246.792646 
L 161.99682 246.284098 
L 162.14465 246.127621 
L 162.243454 245.853788 
L 162.603246 245.267002 
L 162.780537 245.071406 
L 162.845895 244.758454 
L 163.165494 244.523739 
L 163.28565 244.445501 
L 163.585691 244.289025 
L 163.686473 244.054311 
L 164.24063 243.702239 
L 164.504129 243.389286 
L 164.70551 243.154572 
L 165.187653 242.333071 
L 165.684379 242.176595 
L 165.778306 241.941881 
L 165.887386 241.55069 
L 166.067038 241.276856 
L 166.596966 241.081261 
L 166.725746 241.003023 
L 167.163871 240.650951 
L 167.390704 240.494475 
L 167.620749 240.142403 
L 167.996004 239.907689 
L 168.725696 239.751212 
L 168.812862 239.672974 
L 169.01643 239.516498 
L 169.258295 239.281784 
L 170.048298 238.303807 
L 170.197074 237.873497 
L 170.450834 237.638782 
L 170.632979 237.32583 
L 171.178998 237.169354 
L 171.303359 236.778163 
L 171.675419 235.721948 
L 172.206475 235.096043 
L 172.29009 234.900447 
L 172.513027 234.743971 
L 172.605213 234.587495 
L 172.947541 234.196304 
L 173.197399 233.805113 
L 173.590772 233.570399 
L 173.722285 233.296565 
L 174.291508 232.318588 
L 174.406245 231.849159 
L 175.062794 230.675587 
L 175.188974 230.440873 
L 175.322717 229.971444 
L 175.490337 229.384658 
L 175.570004 229.267301 
L 175.732173 229.032586 
L 175.91471 228.563157 
L 176.678559 227.506942 
L 176.826354 226.998394 
L 176.969666 226.802799 
L 177.163887 226.646323 
L 177.952657 225.394512 
L 178.182295 225.198917 
L 178.362667 224.612131 
L 178.637188 224.064464 
L 178.927448 223.39944 
L 179.101585 223.242963 
L 179.185306 223.086487 
L 179.73786 222.930011 
L 179.852436 222.695296 
L 180.114232 221.952034 
L 180.276065 221.717319 
L 180.712926 220.8567 
L 180.854506 220.543747 
L 181.390903 219.917842 
L 181.724252 219.018103 
L 181.950424 218.392198 
L 182.091424 218.079245 
L 182.154724 217.88365 
L 182.409477 217.570697 
L 182.706144 217.375102 
L 182.782702 217.06215 
L 182.880722 216.944792 
L 183.503884 215.888577 
L 183.632708 215.614744 
L 183.965813 214.754124 
L 184.040692 214.480291 
L 184.13913 214.206457 
L 184.393264 213.737028 
L 184.593627 212.915528 
L 184.716282 212.680813 
L 185.548197 210.568383 
L 186.084633 209.86424 
L 186.381993 209.199216 
L 187.230041 207.634453 
L 187.318616 207.438857 
L 187.638293 207.008548 
L 187.768684 206.89119 
L 187.894009 206.343523 
L 188.330874 204.739641 
L 188.524122 204.465808 
L 188.628716 204.231093 
L 188.710226 203.95726 
L 188.937117 203.52695 
L 189.123781 203.370474 
L 189.48087 202.783688 
L 189.710843 202.314259 
L 189.847568 202.118663 
L 190.131485 201.84483 
L 190.232545 201.218925 
L 190.421596 201.023329 
L 190.533328 200.749496 
L 190.631121 200.514781 
L 190.800023 199.927995 
L 191.924298 197.541732 
L 192.041061 197.072303 
L 192.487658 195.664016 
L 193.214058 193.512467 
L 193.285802 193.434229 
L 193.653355 192.9648 
L 193.887251 192.221538 
L 194.250002 191.321799 
L 194.464699 191.087084 
L 194.661369 190.813251 
L 194.923484 190.578536 
L 195.054826 190.304703 
L 195.211625 189.952631 
L 195.373275 189.639679 
L 195.772567 188.661702 
L 195.831042 188.426987 
L 196.116059 188.153154 
L 196.482407 187.449011 
L 196.574376 187.292534 
L 196.689076 186.862224 
L 196.802166 186.510153 
L 196.956995 185.884248 
L 197.315201 185.101866 
L 197.46976 184.906271 
L 198.228264 183.928294 
L 198.238183 183.889175 
L 198.429166 183.732699 
L 198.544089 183.537103 
L 199.239572 182.480888 
L 199.471522 182.089697 
L 199.586468 181.854983 
L 199.724169 181.346435 
L 199.96737 180.994363 
L 201.398416 178.490743 
L 201.522917 178.060433 
L 201.640366 177.903957 
L 201.773044 177.473647 
L 202.402237 175.987122 
L 202.520483 175.752407 
L 202.709574 175.400336 
L 203.125783 174.696192 
L 203.302919 174.461478 
L 203.49344 174.187644 
L 203.747729 173.639977 
L 203.975548 173.248787 
L 204.131171 173.053191 
L 204.340565 172.896715 
L 204.568949 172.70112 
L 204.960596 172.153453 
L 205.036779 171.918738 
L 205.15501 171.723143 
L 205.306375 171.449309 
L 205.493297 171.175476 
L 205.773835 170.784285 
L 205.968196 170.627809 
L 206.176871 170.432213 
L 206.644055 169.72807 
L 206.753964 169.454237 
L 207.132245 169.023927 
L 207.217547 168.945689 
L 207.48923 168.671855 
L 207.625582 168.515379 
L 208.115888 168.006831 
L 208.265457 167.811235 
L 210.014749 165.112019 
L 210.328564 164.877305 
L 210.523779 164.64259 
L 210.815563 164.2514 
L 211.242646 163.312542 
L 211.357934 162.999589 
L 211.412777 162.843113 
L 211.540812 162.491041 
L 211.621763 162.334565 
L 211.720399 162.13897 
L 212.292843 161.317469 
L 212.434526 161.160993 
L 213.081711 160.222135 
L 213.349052 159.830944 
L 213.471214 159.59623 
L 214.40534 158.031467 
L 214.512938 157.835872 
L 214.817467 157.405562 
L 215.074715 156.975252 
L 215.194296 156.779657 
L 215.426076 156.349347 
L 215.540343 156.036394 
L 215.968268 155.136655 
L 216.147405 154.94106 
L 217.019452 153.767488 
L 217.343808 153.415416 
L 218.591914 152.593916 
L 218.983791 152.280963 
L 219.171094 152.046249 
L 219.306029 151.889772 
L 220.182277 150.755319 
L 220.442071 150.598843 
L 220.556005 150.520605 
L 221.312084 150.090295 
L 221.676006 149.85558 
L 222.590276 148.369056 
L 222.837652 148.134341 
L 222.95051 147.977865 
L 223.379449 147.547555 
L 223.485254 147.469317 
L 224.303284 146.999888 
L 224.475517 146.882531 
L 225.490662 146.530459 
L 227.065496 146.373983 
L 227.409006 146.139268 
L 227.419381 146.100149 
L 227.648589 145.943673 
L 227.783743 145.787197 
L 227.921335 145.63072 
L 228.109639 145.435125 
L 228.759537 145.043934 
L 229.761782 144.613625 
L 229.950304 144.37891 
L 230.468312 143.831243 
L 231.335092 143.440052 
L 231.855572 143.205338 
L 231.957978 143.1271 
L 232.648104 142.735909 
L 232.890483 142.579433 
L 233.208803 142.422956 
L 233.327311 142.305599 
L 234.0817 141.992647 
L 235.487613 141.83617 
L 237.551109 141.01467 
L 237.741384 140.858193 
L 239.264017 139.645502 
L 240.522285 139.489026 
L 240.845282 139.215192 
L 242.029945 138.080739 
L 243.237522 137.689548 
L 243.626167 137.493953 
L 244.885389 136.907167 
L 245.034359 136.711572 
L 245.312138 136.515976 
L 245.435417 136.398619 
L 245.966164 136.163905 
L 245.967348 136.124786 
L 246.097987 135.968309 
L 246.434149 135.616238 
L 246.753577 135.459761 
L 247.288805 135.225047 
L 248.016086 134.755618 
L 248.924551 134.520903 
L 248.928114 134.481784 
L 249.491166 134.286189 
L 250.079739 133.934117 
L 250.934985 133.621165 
L 251.11527 133.542927 
L 251.686301 133.269093 
L 251.754839 133.190855 
L 252.227214 133.034379 
L 252.782732 132.643188 
L 253.464186 132.447593 
L 254.831012 132.291116 
L 255.11296 132.017283 
L 255.533019 131.586973 
L 256.482479 131.078425 
L 256.775183 130.765472 
L 256.999541 130.530758 
L 257.482637 130.296043 
L 257.485356 130.217805 
L 258.259615 129.983091 
L 259.298663 129.709257 
L 259.967736 129.552781 
L 260.163185 129.396305 
L 261.18796 129.044233 
L 261.56552 128.848638 
L 261.720882 128.731281 
L 262.355109 128.574804 
L 263.188882 127.792423 
L 263.338439 127.635946 
L 263.493993 127.440351 
L 263.870464 127.010041 
L 264.058686 126.814446 
L 264.292612 126.305898 
L 265.350553 125.406159 
L 265.53949 125.249683 
L 265.799869 124.858492 
L 267.236512 123.841396 
L 267.771384 123.528444 
L 267.870256 123.371967 
L 268.18343 122.941658 
L 268.901624 122.706943 
L 270.433149 121.963681 
L 271.466433 121.494252 
L 272.320821 120.516275 
L 272.528222 120.281561 
L 272.657815 120.085965 
L 272.859533 119.89037 
L 273.25515 119.420941 
L 273.496409 119.264465 
L 273.992198 118.59944 
L 275.287742 117.856178 
L 275.421808 117.660583 
L 275.772237 117.425868 
L 276.073638 116.995558 
L 276.375439 116.799963 
L 276.461055 116.565249 
L 276.729308 116.330534 
L 276.767947 116.291415 
L 277.078217 116.134939 
L 277.353521 115.743748 
L 277.493207 115.469914 
L 278.104377 114.765771 
L 278.189074 114.609295 
L 278.941765 114.061628 
L 279.109395 113.787794 
L 279.215609 113.670437 
L 279.351028 113.513961 
L 279.444953 113.396604 
L 279.714042 113.240127 
L 280.003592 112.848937 
L 280.996975 112.223031 
L 281.14549 111.988317 
L 282.216203 110.814745 
L 282.539767 110.540911 
L 283.109326 110.345316 
L 283.81182 109.445577 
L 283.995583 109.093505 
L 284.090146 108.937029 
L 284.217818 108.4676 
L 284.683861 107.998171 
L 284.80901 107.841695 
L 284.964803 107.6461 
L 285.222536 107.372266 
L 285.354051 107.176671 
L 285.405019 107.098433 
L 286.718956 106.746361 
L 286.792235 106.589885 
L 287.326603 106.120456 
L 287.464971 105.885741 
L 287.772526 105.729265 
L 288.14504 105.494551 
L 288.458623 105.181598 
L 289.026343 104.829526 
L 289.25427 104.67305 
L 289.406852 104.438336 
L 289.898887 103.773311 
L 290.294056 103.42124 
L 290.744712 102.795335 
L 291.427398 102.443263 
L 291.702078 102.091191 
L 292.663015 101.347929 
L 292.781829 100.995857 
L 293.097285 100.487309 
L 293.509174 100.330833 
L 294.405279 100.01788 
L 295.195367 98.76607 
L 295.395198 98.570475 
L 295.479994 98.374879 
L 295.61503 98.296641 
L 295.832509 98.101046 
L 296.106632 97.748974 
L 296.446355 97.436021 
L 296.566684 97.240426 
L 296.840326 96.65364 
L 296.972783 96.105973 
L 297.545371 95.206234 
L 297.741071 94.97152 
L 297.927707 94.893282 
L 298.447527 94.697686 
L 298.552274 94.423853 
L 299.134199 94.150019 
L 299.545052 93.915305 
L 299.974764 93.563233 
L 300.179123 93.406757 
L 300.295216 93.25028 
L 301.346278 92.85909 
L 301.481301 92.663494 
L 302.301628 92.311423 
L 302.449528 92.154946 
L 302.661948 91.959351 
L 302.857489 91.646398 
L 303.067362 91.489922 
L 303.192022 91.098731 
L 303.570117 90.942255 
L 304.561698 90.824898 
L 304.587154 90.74666 
L 305.109882 90.590183 
L 305.347361 90.042516 
L 305.51005 89.88604 
L 305.597387 89.807802 
L 305.939151 89.651326 
L 306.037152 89.494849 
L 306.188718 89.338373 
L 306.196723 89.260135 
L 306.759563 88.986301 
L 306.929457 88.673349 
L 307.32546 88.516873 
L 307.433103 88.282158 
L 307.660139 88.086563 
L 308.196694 87.77361 
L 308.59261 87.108586 
L 310.207059 86.169728 
L 310.216798 86.09149 
L 310.674269 85.895895 
L 310.8327 85.622061 
L 311.235041 85.348228 
L 311.930916 84.526727 
L 312.030484 84.370251 
L 312.454065 83.900822 
L 313.341956 83.079321 
L 313.679822 82.922845 
L 314.307285 82.375178 
L 314.311582 82.336059 
L 314.93005 82.140463 
L 315.063694 81.944868 
L 315.332906 81.749273 
L 315.401726 81.631915 
L 315.894161 81.43632 
L 316.183464 81.084248 
L 317.107235 79.871557 
L 317.223427 79.480366 
L 317.451528 79.363009 
L 318.025744 79.128295 
L 318.278689 78.932699 
L 318.965447 78.737104 
L 319.810543 78.189437 
L 320.051831 77.876484 
L 320.253854 77.64177 
L 320.824892 76.78115 
L 321.555432 76.350841 
L 321.697189 76.116126 
L 321.924018 75.803173 
L 322.011239 75.685816 
L 322.453337 75.451102 
L 322.682014 75.09903 
L 323.960574 74.786078 
L 324.119429 74.590482 
L 324.303134 74.355768 
L 324.410648 74.081934 
L 324.778243 73.768982 
L 324.871286 73.573386 
L 326.85692 72.008623 
L 327.008327 71.891266 
L 327.586063 71.421837 
L 328.33195 71.265361 
L 328.741226 70.952408 
L 329.640146 70.678575 
L 330.277653 70.287384 
L 330.299134 70.209146 
L 330.596214 70.013551 
L 330.873533 69.896193 
L 332.108284 69.309407 
L 332.432279 69.152931 
L 332.719637 68.879097 
L 333.016704 68.566145 
L 333.608844 68.33143 
L 333.747896 68.135835 
L 333.934437 67.94024 
L 334.033722 67.822882 
L 334.319473 67.666406 
L 335.021198 67.275215 
L 335.089888 67.118739 
L 335.456372 66.923144 
L 335.652369 66.727548 
L 336.06766 66.375477 
L 336.447522 66.219 
L 336.465285 66.179881 
L 336.874889 66.023405 
L 337.107836 65.906048 
L 337.641723 65.358381 
L 337.74716 65.162785 
L 337.876351 64.96719 
L 338.164204 64.810714 
L 338.177059 64.771595 
L 338.670992 64.575999 
L 339.085542 64.184809 
L 339.187183 64.10657 
L 340.242026 63.363308 
L 340.417945 63.089474 
L 341.015463 62.267974 
L 341.212897 61.955021 
L 341.438301 61.798545 
L 342.264582 61.642069 
L 342.423213 61.563831 
L 342.66222 61.368235 
L 342.814109 61.094402 
L 343.08284 60.703211 
L 343.307422 60.507616 
L 345.281017 59.764353 
L 345.992981 59.568758 
L 346.310936 59.334043 
L 347.192357 58.434305 
L 347.766469 58.19959 
L 347.901833 58.082233 
L 348.053973 57.847519 
L 348.320911 57.691042 
L 348.448505 57.612804 
L 349.029782 57.221613 
L 349.232235 57.104256 
L 349.986378 56.94778 
L 351.486207 56.791304 
L 352.62064 56.400113 
L 352.754194 56.243636 
L 353.222061 55.969803 
L 354.397265 55.578612 
L 354.797483 55.343898 
L 355.164326 55.148302 
L 356.068232 54.717993 
L 357.114256 54.365921 
L 357.250153 54.287683 
L 358.126608 53.740016 
L 358.647089 53.54442 
L 359.928879 52.840277 
L 360.36202 52.644682 
L 360.377447 52.566444 
L 360.895406 52.331729 
L 360.900099 52.29261 
L 361.712688 51.979657 
L 363.132426 51.119038 
L 363.173167 51.001681 
L 363.432894 50.806085 
L 363.612347 50.61049 
L 363.698334 50.493133 
L 363.868479 50.336656 
L 364.020379 50.258418 
L 364.816317 49.828108 
L 365.202472 49.632513 
L 365.456843 49.476037 
L 365.846688 49.006608 
L 366.073287 48.576298 
L 366.505876 48.028631 
L 366.818036 47.793917 
L 367.099191 47.63744 
L 367.337685 47.520083 
L 367.977888 47.363607 
L 368.524106 47.20713 
L 369.103128 46.855059 
L 369.561153 46.581225 
L 369.756297 46.424749 
L 370.21517 46.190034 
L 370.283012 46.111796 
L 372.561692 45.485891 
L 372.613308 45.407653 
L 373.1051 45.212058 
L 374.402689 44.468795 
L 375.230931 44.234081 
L 375.237761 44.194962 
L 376.026637 44.077604 
L 376.933574 43.882009 
L 379.045413 42.825794 
L 379.05951 42.786675 
L 380.125558 42.395484 
L 380.861642 41.965174 
L 381.550927 41.769579 
L 383.282702 41.143674 
L 383.978124 41.065436 
L 386.650041 40.90896 
L 388.346355 40.322173 
L 388.350363 40.283054 
L 389.012635 39.970102 
L 389.17421 39.813625 
L 391.502059 39.422435 
L 391.504492 39.383316 
L 392.341455 39.226839 
L 392.46807 39.148601 
L 393.397504 38.913887 
L 394.043192 38.79653 
L 396.386188 38.640053 
L 397.367556 38.36622 
L 404.477649 37.740315 
L 408.754431 37.622957 
L 409.375319 37.466481 
L 409.388743 37.427362 
L 410.505351 37.153528 
L 414.399316 36.997052 
L 417.883766 36.762338 
L 417.883766 36.762338 
" clip-path="url(#pa34013871a)" style="fill: none; stroke: #2ca02c; stroke-width: 1.3; stroke-linecap: square"/>
   </g>
   <g id="patch_3">
    <path d="M 45.842857 283.171429 
L 45.842857 25.028571 
" style="fill: none; stroke: #444444; stroke-width: 0.8; stroke-linejoin: miter; stroke-linecap: square"/>
   </g>
   <g id="patch_4">
    <path d="M 45.842857 283.171429 
L 435.6 283.171429 
" style="fill: none; stroke: #444444; stroke-width: 0.8; stroke-linejoin: miter; stroke-linecap: square"/>
   </g>
   <g id="text_15">
    <!-- Position error CDF by phase -->
    <g transform="translate(164.423538 19.028571) scale(0.11 -0.11)">
     <defs>
      <path id="DejaVuSans-62" d="M 3116 1747 
Q 3116 2381 2855 2742 
Q 2594 3103 2138 3103 
Q 1681 3103 1420 2742 
Q 1159 2381 1159 1747 
Q 1159 1113 1420 752 
Q 1681 391 2138 391 
Q 2594 391 2855 752 
Q 3116 1113 3116 1747 
z
M 1159 2969 
Q 1341 3281 1617 3432 
Q 1894 3584 2278 3584 
Q 2916 3584 3314 3078 
Q 3713 2572 3713 1747 
Q 3713 922 3314 415 
Q 2916 -91 2278 -91 
Q 1894 -91 1617 61 
Q 1341 213 1159 525 
L 1159 0 
L 581 0 
L 581 4863 
L 1159 4863 
L 1159 2969 
z
" transform="scale(0.015625)"/>
      <path id="DejaVuSans-79" d="M 2059 -325 
Q 1816 -950 1584 -1140 
Q 1353 -1331 966 -1331 
L 506 -1331 
L 506 -850 
L 844 -850 
Q 1081 -850 1212 -737 
Q 1344 -625 1503 -206 
L 1606 56 
L 191 3500 
L 800 3500 
L 1894 763 
L 2988 3500 
L 3597 3500 
L 2059 -325 
z
" transform="scale(0.015625)"/>
      <path id="DejaVuSans-68" d="M 3513 2113 
L 3513 0 
L 2938 0 
L 2938 2094 
Q 2938 2591 2744 2837 
Q 2550 3084 2163 3084 
Q 1697 3084 1428 2787 
Q 1159 2491 1159 1978 
L 1159 0 
L 581 0 
L 581 4863 
L 1159 4863 
L 1159 2956 
Q 1366 3272 1645 3428 
Q 1925 3584 2291 3584 
Q 2894 3584 3203 3211 
Q 3513 2838 3513 2113 
z
" transform="scale(0.015625)"/>
     </defs>
     <use xlink:href="#DejaVuSans-50"/>
     <use xlink:href="#DejaVuSans-6f" x="56.677734"/>
     <use xlink:href="#DejaVuSans-73" x="117.859375"/>
     <use xlink:href="#DejaVuSans-69" x="169.958984"/>
     <use xlink:href="#DejaVuSans-74" x="197.742188"/>
     <use xlink:href="#DejaVuSans-69" x="236.951172"/>
     <use xlink:href="#DejaVuSans-6f" x="264.734375"/>
     <use xlink:href="#DejaVuSans-6e" x="325.916016"/>
     <use xlink:href="#DejaVuSans-20" x="389.294922"/>
     <use xlink:href="#DejaVuSans-65" x="421.082031"/>
     <use xlink:href="#DejaVuSans-72" x="482.605469"/>
     <use xlink:href="#DejaVuSans-72" x="521.96875"/>
     <use xlink:href="#DejaVuSans-6f" x="560.832031"/>
     <use xlink:href="#DejaVuSans-72" x="622.013672"/>
     <use xlink:href="#DejaVuSans-20" x="663.126953"/>
     <use xlink:href="#DejaVuSans-43" x="694.914062"/>
     <use xlink:href="#DejaVuSans-44" x="764.738281"/>
     <use xlink:href="#DejaVuSans-46" x="841.740234"/>
     <use xlink:href="#DejaVuSans-20" x="899.259766"/>
     <use xlink:href="#DejaVuSans-62" x="931.046875"/>
     <use xlink:href="#DejaVuSans-79" x="994.523438"/>
     <use xlink:href="#DejaVuSans-20" x="1053.703125"/>
     <use xlink:href="#DejaVuSans-70" x="1085.490234"/>
     <use xlink:href="#DejaVuSans-68" x="1148.966797"/>
     <use xlink:href="#DejaVuSans-61" x="1212.345703"/>
     <use xlink:href="#DejaVuSans-73" x="1273.625"/>
     <use xlink:href="#DejaVuSans-65" x="1325.724609"/>
    </g>
   </g>
   <g id="legend_1">
    <g id="patch_5">
     <path d="M 52.142857 58.649196 
L 164.673795 58.649196 
Q 166.473795 58.649196 166.473795 56.849196 
L 166.473795 31.328571 
Q 166.473795 29.528571 164.673795 29.528571 
L 52.142857 29.528571 
Q 50.342857 29.528571 50.342857 31.328571 
L 50.342857 56.849196 
Q 50.342857 58.649196 52.142857 58.649196 
z
" style="fill: #ffffff; opacity: 0.95; stroke: #d0d0d0; stroke-linejoin: miter"/>
    </g>
    <g id="line2d_27">
     <path d="M 53.942857 36.817165 
L 62.942857 36.817165 
L 71.942857 36.817165 
" style="fill: none; stroke: #000000; stroke-width: 1.3; stroke-linecap: square"/>
    </g>
    <g id="text_16">
     <!-- overall (n=6000) -->
     <g transform="translate(79.142857 39.967165) scale(0.09 -0.09)">
      <defs>
       <path id="DejaVuSans-76" d="M 191 3500 
L 800 3500 
L 1894 563 
L 2988 3500 
L 3597 3500 
L 2284 0 
L 1503 0 
L 191 3500 
z
" transform="scale(0.015625)"/>
       <path id="DejaVuSans-28" d="M 1984 4856 
Q 1566 4138 1362 3434 
Q 1159 2731 1159 2009 
Q 1159 1288 1364 580 
Q 1569 -128 1984 -844 
L 1484 -844 
Q 1016 -109 783 600 
Q 550 1309 550 2009 
Q 550 2706 781 3412 
Q 1013 4119 1484 4856 
L 1984 4856 
z
" transform="scale(0.015625)"/>
       <path id="DejaVuSans-3d" d="M 678 2906 
L 4684 2906 
L 4684 2381 
L 678 2381 
L 678 2906 
z
M 678 1631 
L 4684 1631 
L 4684 1100 
L 678 1100 
L 678 1631 
z
" transform="scale(0.015625)"/>
       <path id="DejaVuSans-29" d="M 513 4856 
L 1013 4856 
Q 1481 4119 1714 3412 
Q 1947 2706 1947 2009 
Q 1947 1309 1714 600 
Q 1481 -109 1013 -844 
L 513 -844 
Q 928 -128 1133 580 
Q 1338 1288 1338 2009 
Q 1338 2731 1133 3434 
Q 928 4138 513 4856 
z
" transform="scale(0.015625)"/>
      </defs>
      <use xlink:href="#DejaVuSans-6f"/>
      <use xlink:href="#DejaVuSans-76" x="61.181641"/>
      <use xlink:href="#DejaVuSans-65" x="120.361328"/>
      <use xlink:href="#DejaVuSans-72" x="181.884766"/>
      <use xlink:href="#DejaVuSans-61" x="222.998047"/>
      <use xlink:href="#DejaVuSans-6c" x="284.277344"/>
      <use xlink:href="#DejaVuSans-6c" x="312.060547"/>
      <use xlink:href="#DejaVuSans-20" x="339.84375"/>
      <use xlink:href="#DejaVuSans-28" x="371.630859"/>
      <use xlink:href="#DejaVuSans-6e" x="410.644531"/>
      <use xlink:href="#DejaVuSans-3d" x="474.023438"/>
      <use xlink:href="#DejaVuSans-36" x="557.8125"/>
      <use xlink:href="#DejaVuSans-30" x="621.435547"/>
      <use xlink:href="#DejaVuSans-30" x="685.058594"/>
      <use xlink:href="#DejaVuSans-30" x="748.681641"/>
      <use xlink:href="#DejaVuSans-29" x="812.304688"/>
     </g>
    </g>
    <g id="line2d_28">
     <path d="M 53.942857 50.027478 
L 62.942857 50.027478 
L 71.942857 50.027478 
" style="fill: none; stroke: #2ca02c; stroke-width: 1.3; stroke-linecap: square"/>
    </g>
    <g id="text_17">
     <!-- baseline (n=6000) -->
     <g transform="translate(79.142857 53.177478) scale(0.09 -0.09)">
      <use xlink:href="#DejaVuSans-62"/>
      <use xlink:href="#DejaVuSans-61" x="63.476562"/>
      <use xlink:href="#DejaVuSans-73" x="124.755859"/>
      <use xlink:href="#DejaVuSans-65" x="176.855469"/>
      <use xlink:href="#DejaVuSans-6c" x="238.378906"/>
      <use xlink:href="#DejaVuSans-69" x="266.162109"/>
      <use xlink:href="#DejaVuSans-6e" x="293.945312"/>
      <use xlink:href="#DejaVuSans-65" x="357.324219"/>
      <use xlink:href="#DejaVuSans-20" x="418.847656"/>
      <use xlink:href="#DejaVuSans-28" x="450.634766"/>
      <use xlink:href="#DejaVuSans-6e" x="489.648438"/>
      <use xlink:href="#DejaVuSans-3d" x="553.027344"/>
      <use xlink:href="#DejaVuSans-36" x="636.816406"/>
      <use xlink:href="#DejaVuSans-30" x="700.439453"/>
      <use xlink:href="#DejaVuSans-30" x="764.0625"/>
      <use xlink:href="#DejaVuSans-30" x="827.685547"/>
      <use xlink:href="#DejaVuSans-29" x="891.308594"/>
     </g>
    </g>
   </g>
  </g>
 </g>
 <defs>
  <clipPath id="pa34013871a">
   <rect x="45.842857" y="25.028571" width="389.757143" height="258.142857"/>
  </clipPath>
 </defs>
</svg>
